<?xml version="1.0" encoding="UTF-8" standalone="no"?>
<!DOCTYPE svg PUBLIC "-//W3C//DTD SVG 1.1//EN" "http://www.w3.org/Graphics/SVG/1.1/DTD/svg11.dtd">
<svg width="100%" height="100%" viewBox="0 0 945 517" version="1.1" xmlns="http://www.w3.org/2000/svg" xmlns:xlink="http://www.w3.org/1999/xlink" xml:space="preserve" xmlns:serif="http://www.serif.com/" style="fill-rule:evenodd;clip-rule:evenodd;stroke-linejoin:round;stroke-miterlimit:2;">
    <g id="Layer1">
        <rect x="-13.823" y="-6.855" width="972.744" height="531.219" style="fill:rgb(19,19,20);"/>
    </g>
    <g id="_-ffffffff" serif:id="#ffffffff">
        <path d="M546.41,28.02C547.47,26.49 548.7,24.01 551,24.61C552.79,24.64 553.51,26.65 554.59,27.76C553.78,29.31 553.34,31.83 551.09,31.8C548.53,32.46 547.3,29.88 546.41,28.02Z" style="fill:rgb(85,85,85);fill-rule:nonzero;"/>
        <path d="M654.19,25.18C657.03,24.03 660.24,27.12 658.81,29.95C657.97,32.59 653.91,33.07 652.49,30.67C650.98,28.94 651.99,25.79 654.19,25.18Z" style="fill:rgb(85,85,85);fill-rule:nonzero;"/>
        <path d="M758.32,25.53C760.08,24.53 763.12,24.91 763.74,27.14C765.26,29.89 761.8,33.44 759.02,31.94C756.34,31.04 755.92,27 758.32,25.53Z" style="fill:rgb(85,85,85);fill-rule:nonzero;"/>
        <path d="M153.15,26.11C155.63,24.37 159.24,27.06 158.55,29.94C158.2,32.85 154.07,33.92 152.24,31.75C150.64,30.18 151.07,27.06 153.15,26.11Z" style="fill:rgb(85,85,85);fill-rule:nonzero;"/>
        <path d="M259.19,26.08C261.49,25.48 263.96,27.69 263.48,30.05C263.33,32.85 259.48,34.41 257.47,32.37C255.15,30.64 256.24,26.32 259.19,26.08Z" style="fill:rgb(85,85,85);fill-rule:nonzero;"/>
        <path d="M361.59,32.26C360.96,29.94 361,26.39 364.11,26.08C367.6,25.11 370.07,30.11 367.27,32.32C365.65,34.03 363.42,32.82 361.59,32.26Z" style="fill:rgb(85,85,85);fill-rule:nonzero;"/>
        <path d="M916.43,145.45C918.04,143.57 921.4,144.22 922.35,146.46C923.65,148.95 921.21,152.27 918.44,151.61C915.57,151.42 914.27,147.31 916.43,145.45Z" style="fill:rgb(85,85,85);fill-rule:nonzero;"/>
        <path d="M26.22,148.07C29.03,145.99 33.06,149.55 31.49,152.64C30.57,155.13 27.74,154.77 25.64,154.49C24.63,152.43 23.65,149.44 26.22,148.07Z" style="fill:rgb(85,85,85);fill-rule:nonzero;"/>
        <path d="M917.44,249.64C919.81,248.43 922.96,250.46 922.67,253.15C922.68,256.1 918.48,257.88 916.5,255.6C914.57,253.99 915.2,250.63 917.44,249.64Z" style="fill:rgb(85,85,85);fill-rule:nonzero;"/>
        <path d="M26.23,252.98C28.77,251.16 32.56,253.88 31.72,256.88C31.25,259.68 27.29,260.77 25.46,258.61C23.84,257.04 24.26,254.06 26.23,252.98Z" style="fill:rgb(85,85,85);fill-rule:nonzero;"/>
        <path d="M917.35,354.47C919.7,353.46 922.57,355.5 922.35,358.05C922.33,360.95 918.43,362.76 916.32,360.67C914.2,359.09 914.82,355.29 917.35,354.47Z" style="fill:rgb(85,85,85);fill-rule:nonzero;"/>
        <path d="M25.32,358.34C27.41,356.11 31.65,357.96 31.44,361C31.68,363.78 28.19,365.69 25.91,364.18C23.84,363.06 23.52,359.83 25.32,358.34Z" style="fill:rgb(85,85,85);fill-rule:nonzero;"/>
        <path d="M550.42,484.02C551.47,481.66 554.28,482.17 556.33,482.53C557.17,484.56 558.08,487.38 555.7,488.77C552.78,491.05 548.58,487.17 550.42,484.02Z" style="fill:rgb(85,85,85);fill-rule:nonzero;"/>
        <path d="M156.43,483.5C158.82,482.2 162.08,484.31 161.72,487.04C161.72,489.64 158.37,491.41 156.23,489.94C153.71,488.68 153.88,484.62 156.43,483.5Z" style="fill:rgb(85,85,85);fill-rule:nonzero;"/>
        <path d="M656.31,483.24C658.74,480.88 663.22,483.76 662.16,486.96C661.68,489.28 658.8,490.48 656.8,489.28C654.63,488.15 654.36,484.69 656.31,483.24Z" style="fill:rgb(85,85,85);fill-rule:nonzero;"/>
        <path d="M761.27,483.22C763.09,481.51 766.52,482.61 767.06,485.07C768.03,487.71 765.01,490.64 762.37,489.55C759.69,488.76 758.98,484.85 761.27,483.22Z" style="fill:rgb(85,85,85);fill-rule:nonzero;"/>
        <path d="M260.46,484.5C262.26,482.53 265.93,483.51 266.52,486.09C267.29,488.31 265.42,490.89 263.05,490.76C259.87,491.07 258.04,486.54 260.46,484.5Z" style="fill:rgb(85,85,85);fill-rule:nonzero;"/>
        <path d="M365.4,484.5C368.53,481.05 374.01,486.42 370.62,489.62C367.53,493.34 361.73,487.71 365.4,484.5Z" style="fill:rgb(85,85,85);fill-rule:nonzero;"/>
    </g>
    <g id="_-131314ff" serif:id="#131314ff">
        <path d="M30.19,11.29C323.14,11.21 616.1,11.38 909.06,11.38C913.35,11.5 917.81,10.82 921.92,12.47C928.94,14.63 934.06,21.62 933.99,28.98C934,177.31 933.99,325.65 933.99,473.99C933.94,478.02 934.22,482.08 933.78,486.11C932.7,494.2 925.26,500.84 917.08,500.88C622.05,500.7 327.03,500.46 32,500.26C22.13,500.77 13.15,491.84 13.5,481.99C13.52,333.65 13.5,185.32 13.51,36.98C13.55,33.7 13.35,30.41 13.63,27.13C14.49,18.85 21.81,11.66 30.19,11.29M448.83,29.93C446.86,33.47 447.36,37.63 447.43,41.51C449.19,41.5 450.95,41.5 452.72,41.49C453.08,38.62 452.76,35.22 455.13,33.09C464.76,22.71 483.7,23.39 492.39,34.66C494.26,36.72 493.53,39.63 493.23,42.09C493.69,45.67 495.47,48.86 497.12,52.01C495.56,55.61 493.97,59.32 491.16,62.15C484.81,69.08 474.26,71.77 465.42,68.45C457.77,65.9 452.15,59.21 449.82,51.62C451.53,48.51 452.9,45.22 453.88,41.8C431.6,41.45 409.32,41.74 387.05,41.65C282.51,41.57 177.96,41.81 73.42,41.53C73.57,41.9 73.85,42.64 74,43.01C70.43,34.95 61.82,29.59 52.99,30.17C39.75,29.76 27.74,41.71 28.15,54.96C27.71,63.58 34.19,71.03 42.04,73.75C41.58,195.74 41.32,317.73 40.97,439.72C35.84,441.93 31.1,445.88 29.24,451.28C26.02,461.07 30.14,472.58 38.65,478.34C49.36,486.41 67.21,483.74 73.5,471.38C198.07,471.39 322.64,471.48 447.2,471.34C447.33,475.24 446.88,479.47 448.96,482.98C454.17,492.36 465.36,497.85 475.98,496.42C488.23,495.38 499.26,484.95 500.08,472.53C499.78,472.41 499.17,472.19 498.87,472.07C497.4,471.92 495.94,471.69 494.5,471.46C493.93,474 493.82,476.9 491.86,478.86C482.49,489.58 463.44,489.77 454.42,478.5C452.53,476.5 453.06,473.64 453.37,471.18C453.2,468.42 452.06,465.9 450.85,463.47C454.81,454.48 464.02,447.92 474.02,448.34C483.53,448.35 492.08,454.67 496,463.15C495.16,465.83 492.33,468.54 493.65,471.39C620.16,471.44 746.72,471.47 873.25,471.38C878.19,481.09 890.75,485.4 900.88,481.95C911.49,478.86 919.27,468.07 918.58,457C918.38,449.3 912.77,442.47 905.74,439.75C905.44,317.77 905.06,195.79 904.68,73.8C911.11,71.36 916.99,66.04 918.2,59.02C920.24,48.39 914.11,37.07 904.39,32.52C893.7,27.19 878.84,30.73 873.23,41.69C748.12,41.76 623,41.61 497.9,41.77L498.45,41.47C499.95,39.71 499.1,37.13 498.84,35.08C496.59,26.69 489.56,19.99 481.36,17.4C469.4,13.13 454.73,18.62 448.83,29.93M546.41,28.02C547.3,29.88 548.53,32.46 551.09,31.8C553.34,31.83 553.78,29.31 554.59,27.76C553.51,26.65 552.79,24.64 551,24.61C548.7,24.01 547.47,26.49 546.41,28.02M654.19,25.18C651.99,25.79 650.98,28.94 652.49,30.67C653.91,33.07 657.97,32.59 658.81,29.95C660.24,27.12 657.03,24.03 654.19,25.18M758.32,25.53C755.92,27 756.34,31.04 759.02,31.94C761.8,33.44 765.26,29.89 763.74,27.14C763.12,24.91 760.08,24.53 758.32,25.53M153.15,26.11C151.07,27.06 150.64,30.18 152.24,31.75C154.07,33.92 158.2,32.85 158.55,29.94C159.24,27.06 155.63,24.37 153.15,26.11M259.19,26.08C256.24,26.32 255.15,30.64 257.47,32.37C259.48,34.41 263.33,32.85 263.48,30.05C263.96,27.69 261.49,25.48 259.19,26.08M361.59,32.26C363.42,32.82 365.65,34.03 367.27,32.32C370.07,30.11 367.6,25.11 364.11,26.08C361,26.39 360.96,29.94 361.59,32.26M916.43,145.45C914.27,147.31 915.57,151.42 918.44,151.61C921.21,152.27 923.65,148.95 922.35,146.46C921.4,144.22 918.04,143.57 916.43,145.45M26.22,148.07C23.65,149.44 24.63,152.43 25.64,154.49C27.74,154.77 30.57,155.13 31.49,152.64C33.06,149.55 29.03,145.99 26.22,148.07M917.44,249.64C915.2,250.63 914.57,253.99 916.5,255.6C918.48,257.88 922.68,256.1 922.67,253.15C922.96,250.46 919.81,248.43 917.44,249.64M26.23,252.98C24.26,254.06 23.84,257.04 25.46,258.61C27.29,260.77 31.25,259.68 31.72,256.88C32.56,253.88 28.77,251.16 26.23,252.98M917.35,354.47C914.82,355.29 914.2,359.09 916.32,360.67C918.43,362.76 922.33,360.95 922.35,358.05C922.57,355.5 919.7,353.46 917.35,354.47M25.32,358.34C23.52,359.83 23.84,363.06 25.91,364.18C28.19,365.69 31.68,363.78 31.44,361C31.65,357.96 27.41,356.11 25.32,358.34M550.42,484.02C548.58,487.17 552.78,491.05 555.7,488.77C558.08,487.38 557.17,484.56 556.33,482.53C554.28,482.17 551.47,481.66 550.42,484.02M156.43,483.5C153.88,484.62 153.71,488.68 156.23,489.94C158.37,491.41 161.72,489.64 161.72,487.04C162.08,484.31 158.82,482.2 156.43,483.5M656.31,483.24C654.36,484.69 654.63,488.15 656.8,489.28C658.8,490.48 661.68,489.28 662.16,486.96C663.22,483.76 658.74,480.88 656.31,483.24M761.27,483.22C758.98,484.85 759.69,488.76 762.37,489.55C765.01,490.64 768.03,487.71 767.06,485.07C766.52,482.61 763.09,481.51 761.27,483.22M260.46,484.5C258.04,486.54 259.87,491.07 263.05,490.76C265.42,490.89 267.29,488.31 266.52,486.09C265.93,483.51 262.26,482.53 260.46,484.5M365.4,484.5C361.73,487.71 367.53,493.34 370.62,489.62C374.01,486.42 368.53,481.05 365.4,484.5Z" style="fill:rgb(19,19,20);fill-rule:nonzero;"/>
        <path d="M34.73,54.07C36.52,43.03 47.67,33.74 59.02,35.76C64.88,36.42 68.34,41.71 71.92,45.76C72.66,45.57 74.14,45.18 74.89,44.99C78.2,48.46 82.2,51.19 85.76,54.41C85.71,61.77 84.23,69.49 79.25,75.19C73.77,82.14 64.86,85.43 56.18,85.44C52.6,82.66 50.17,78.73 46.83,75.69C47.24,74.34 47.66,72.99 48.08,71.64C44.15,69.73 39.78,68.46 36.43,65.57C33.95,62.36 34.14,57.88 34.73,54.07Z" style="fill:rgb(19,19,20);fill-rule:nonzero;"/>
        <path d="M871.67,46.17C878.32,44.51 880.74,36.03 887.98,35.7C902.99,33.21 916.32,50.08 911.28,64.18C908.61,68.27 903.27,69.18 899.13,71.18C899.16,72.65 899.2,74.12 899.26,75.58C896.54,78.84 893.76,82.06 891.15,85.39C883.04,85.46 874.65,82.99 869.01,76.92C863.07,71.16 860.88,62.73 860.97,54.67C864.56,51.87 867.97,48.84 871.67,46.17Z" style="fill:rgb(19,19,20);fill-rule:nonzero;"/>
        <path d="M56.45,427.71C65.03,427.68 73.82,430.98 79.21,437.86C84.15,443.54 85.84,451.2 85.59,458.57C82.03,461.27 78.81,464.43 74.98,466.75C69.72,468.52 67.12,473.88 62.41,476.4C50.35,481.17 36.57,471.21 34.73,458.99C34.21,455.19 33.91,450.69 36.47,447.53C39.68,444.69 43.92,443.49 47.78,441.78C47.64,440.43 47.51,439.09 47.39,437.75C50.57,434.56 53.67,431.27 56.45,427.71Z" style="fill:rgb(19,19,20);fill-rule:nonzero;"/>
        <path d="M866.3,439.4C871.92,431.33 881.9,427.11 891.62,427.87C894.53,430.95 897.19,434.27 900.14,437.32C899.68,438.79 899.26,440.27 898.83,441.75C903.07,443.75 908.37,444.77 911.19,448.83C916.6,463.24 902.27,480.58 887.04,477.26C880.38,476.29 878.14,468.35 871.67,466.96C867.98,464.27 864.58,461.23 860.99,458.42C861.08,451.78 862.15,444.82 866.3,439.4Z" style="fill:rgb(19,19,20);fill-rule:nonzero;"/>
    </g>
    <g id="_-3d3d3eff" serif:id="#3d3d3eff">
        <path d="M448.83,29.93C454.73,18.62 469.4,13.13 481.36,17.4C489.56,19.99 496.59,26.69 498.84,35.08C499.1,37.13 499.95,39.71 498.45,41.47L497.9,41.77C496.33,41.89 494.78,41.99 493.23,42.09C493.53,39.63 494.26,36.72 492.39,34.66C483.7,23.39 464.76,22.71 455.13,33.09C452.76,35.22 453.08,38.62 452.72,41.49C450.95,41.5 449.19,41.5 447.43,41.51C447.36,37.63 446.86,33.47 448.83,29.93Z" style="fill:rgb(61,61,62);fill-rule:nonzero;"/>
        <path d="M28.15,54.96C27.74,41.71 39.75,29.76 52.99,30.17C61.82,29.59 70.43,34.95 74,43.01C74.22,43.51 74.66,44.49 74.89,44.99C74.14,45.18 72.66,45.57 71.92,45.76C68.34,41.71 64.88,36.42 59.02,35.76C47.67,33.74 36.52,43.03 34.73,54.07C34.14,57.88 33.95,62.36 36.43,65.57C39.78,68.46 44.15,69.73 48.08,71.64C47.66,72.99 47.24,74.34 46.83,75.69C45.25,75 43.64,74.39 42.04,73.75C34.19,71.03 27.71,63.58 28.15,54.96Z" style="fill:rgb(61,61,62);fill-rule:nonzero;"/>
        <path d="M873.23,41.69C878.84,30.73 893.7,27.19 904.39,32.52C914.11,37.07 920.24,48.39 918.2,59.02C916.99,66.04 911.11,71.36 904.68,73.8C902.89,74.46 901.07,75.02 899.26,75.58C899.2,74.12 899.16,72.65 899.13,71.18C903.27,69.18 908.61,68.27 911.28,64.18C916.32,50.08 902.99,33.21 887.98,35.7C880.74,36.03 878.32,44.51 871.67,46.17C872.16,44.67 872.66,43.17 873.23,41.69Z" style="fill:rgb(61,61,62);fill-rule:nonzero;"/>
        <path d="M40.97,439.72C43.05,438.89 45.22,438.3 47.39,437.75C47.51,439.09 47.64,440.43 47.78,441.78C43.92,443.49 39.68,444.69 36.47,447.53C33.91,450.69 34.21,455.19 34.73,458.99C36.57,471.21 50.35,481.17 62.41,476.4C67.12,473.88 69.72,468.52 74.98,466.75C74.51,468.3 74.03,469.84 73.5,471.38C67.21,483.74 49.36,486.41 38.65,478.34C30.14,472.58 26.02,461.07 29.24,451.28C31.1,445.88 35.84,441.93 40.97,439.72Z" style="fill:rgb(61,61,62);fill-rule:nonzero;"/>
        <path d="M900.14,437.32C901.96,438.2 903.85,438.96 905.74,439.75C912.77,442.47 918.38,449.3 918.58,457C919.27,468.07 911.49,478.86 900.88,481.95C890.75,485.4 878.19,481.09 873.25,471.38C872.67,469.92 872.17,468.43 871.67,466.96C878.14,468.35 880.38,476.29 887.04,477.26C902.27,480.58 916.6,463.24 911.19,448.83C908.37,444.77 903.07,443.75 898.83,441.75C899.26,440.27 899.68,438.79 900.14,437.32Z" style="fill:rgb(61,61,62);fill-rule:nonzero;"/>
        <path d="M447.2,471.34C449.25,471.29 451.31,471.24 453.37,471.18C453.06,473.64 452.53,476.5 454.42,478.5C463.44,489.77 482.49,489.58 491.86,478.86C493.82,476.9 493.93,474 494.5,471.46C495.94,471.69 497.4,471.92 498.87,472.07C499.17,472.19 499.78,472.41 500.08,472.53C499.26,484.95 488.23,495.38 475.98,496.42C465.36,497.85 454.17,492.36 448.96,482.98C446.88,479.47 447.33,475.24 447.2,471.34Z" style="fill:rgb(61,61,62);fill-rule:nonzero;"/>
    </g>
    <g id="_-0081dfff" serif:id="#0081dfff">
        <path d="M74,43.01C73.85,42.64 73.57,41.9 73.42,41.53C177.96,41.81 282.51,41.57 387.05,41.65C409.32,41.74 431.6,41.45 453.88,41.8C452.9,45.22 451.53,48.51 449.82,51.62C448.54,54.07 447.21,56.48 445.87,58.9C329.59,58.69 213.29,58.78 97,58.81C92.8,58.96 88.84,57.19 85.76,54.41C82.2,51.19 78.2,48.46 74.89,44.99C74.66,44.49 74.22,43.51 74,43.01Z" style="fill:rgb(17,106,156);fill-rule:nonzero;"/>
        <path d="M493.23,42.09C494.78,41.99 496.33,41.89 497.9,41.77C623,41.61 748.12,41.76 873.23,41.69C872.66,43.17 872.16,44.67 871.67,46.17C867.97,48.84 864.56,51.87 860.97,54.67C857.56,57.32 853.37,58.92 849.03,58.82C733.05,58.8 617.07,58.68 501.09,58.92C499.73,56.64 498.39,54.34 497.12,52.01C495.47,48.86 493.69,45.67 493.23,42.09Z" style="fill:rgb(17,106,156);fill-rule:nonzero;"/>
        <path d="M42.04,73.75C43.64,74.39 45.25,75 46.83,75.69C50.17,78.73 52.6,82.66 56.18,85.44C57.91,92.51 57.39,99.8 57.36,106.99C57.41,206.67 57.32,306.35 57.29,406.03C57.2,413.25 57.91,420.57 56.45,427.71C53.67,431.27 50.57,434.56 47.39,437.75C45.22,438.3 43.05,438.89 40.97,439.72C41.32,317.73 41.58,195.74 42.04,73.75Z" style="fill:rgb(17,106,156);fill-rule:nonzero;"/>
        <path d="M899.26,75.58C901.07,75.02 902.89,74.46 904.68,73.8C905.06,195.79 905.44,317.77 905.74,439.75C903.85,438.96 901.96,438.2 900.14,437.32C897.19,434.27 894.53,430.95 891.62,427.87C888.83,425.37 889.13,421.43 889.11,418.03C889.3,407.02 889.19,396.01 889.22,385C889.17,287.68 889.2,190.36 889.04,93.04C889.06,90.36 889.71,87.68 891.15,85.39C893.76,82.06 896.54,78.84 899.26,75.58Z" style="fill:rgb(17,106,156);fill-rule:nonzero;"/>
        <path d="M85.59,458.57C88.58,456.25 92.06,454.24 95.97,454.27C211.32,454.19 326.69,454.39 442.04,454.07C447.52,453.39 448.63,459.86 450.85,463.47C452.06,465.9 453.2,468.42 453.37,471.18C451.31,471.24 449.25,471.29 447.2,471.34C322.64,471.48 198.07,471.39 73.5,471.38C74.03,469.84 74.51,468.3 74.98,466.75C78.81,464.43 82.03,461.27 85.59,458.57Z" style="fill:rgb(17,106,156);fill-rule:nonzero;"/>
        <path d="M500.82,454.79C503.75,453.79 506.92,454.06 509.98,454.03C517.99,454.26 526,454.19 534.02,454.19C639.01,454.33 744.01,454.43 849,454.21C853.38,454.07 857.59,455.7 860.99,458.42C864.58,461.23 867.98,464.27 871.67,466.96C872.17,468.43 872.67,469.92 873.25,471.38C746.72,471.47 620.16,471.44 493.65,471.39C492.33,468.54 495.16,465.83 496,463.15C497.44,460.28 498.58,457.15 500.82,454.79Z" style="fill:rgb(17,106,156);fill-rule:nonzero;"/>
    </g>
    <g id="_-0268d3ff" serif:id="#0268d3ff">
        <path d="M445.87,58.9C447.21,56.48 448.54,54.07 449.82,51.62C452.15,59.21 457.77,65.9 465.42,68.45C474.26,71.77 484.81,69.08 491.16,62.15C493.97,59.32 495.56,55.61 497.12,52.01C498.39,54.34 499.73,56.64 501.09,58.92C617.07,58.68 733.05,58.8 849.03,58.82C853.37,58.92 857.56,57.32 860.97,54.67C860.88,62.73 863.07,71.16 869.01,76.92C874.65,82.99 883.04,85.46 891.15,85.39C889.71,87.68 889.06,90.36 889.04,93.04C889.2,190.36 889.17,287.68 889.22,385C889.19,396.01 889.3,407.02 889.11,418.03C889.13,421.43 888.83,425.37 891.62,427.87C881.9,427.11 871.92,431.33 866.3,439.4C862.15,444.82 861.08,451.78 860.99,458.42C857.59,455.7 853.38,454.07 849,454.21C744.01,454.43 639.01,454.33 534.02,454.19C526,454.19 517.99,454.26 509.98,454.03C506.92,454.06 503.75,453.79 500.82,454.79C498.58,457.15 497.44,460.28 496,463.15C492.08,454.67 483.53,448.35 474.02,448.34C464.02,447.92 454.81,454.48 450.85,463.47C448.63,459.86 447.52,453.39 442.04,454.07C326.69,454.39 211.32,454.19 95.97,454.27C92.06,454.24 88.58,456.25 85.59,458.57C85.84,451.2 84.15,443.54 79.21,437.86C73.82,430.98 65.03,427.68 56.45,427.71C57.91,420.57 57.2,413.25 57.29,406.03C57.32,306.35 57.41,206.67 57.36,106.99C57.39,99.8 57.91,92.51 56.18,85.44C64.86,85.43 73.77,82.14 79.25,75.19C84.23,69.49 85.71,61.77 85.76,54.41C88.84,57.19 92.8,58.96 97,58.81C213.29,58.78 329.59,58.69 445.87,58.9Z" style="fill:rgb(29,131,188);fill-rule:nonzero;"/>
    </g>
    <g transform="matrix(0.456662,0,0,0.456662,263.85,144.589)">
        <g opacity="0.25">
            <g transform="matrix(0.688699,0,0,0.688699,-195.439,-236.427)">
                <path d="M792.779,653.344C783.246,661.447 772.616,667.668 760.89,672.005C749.164,676.343 736.961,678.512 724.281,678.512C714.557,678.512 705.191,677.249 696.182,674.722C687.173,672.196 678.759,668.621 670.942,663.997C663.124,659.374 655.974,653.844 649.492,647.409C643.009,640.974 637.48,633.824 632.904,625.959C628.327,618.094 624.776,609.633 622.25,600.576C619.724,591.52 618.46,582.129 618.46,572.405C618.46,562.681 619.724,553.338 622.25,544.377C624.776,535.415 628.327,527.002 632.904,519.137C637.48,511.272 643.009,504.122 649.492,497.687C655.974,491.252 663.124,485.746 670.942,481.17C678.759,476.594 687.173,473.043 696.182,470.517C705.191,467.99 714.557,466.727 724.281,466.727C736.961,466.727 749.164,468.896 760.89,473.234C772.616,477.571 783.246,483.792 792.779,491.895L771.329,527.646C765.132,521.354 757.982,516.42 749.879,512.845C741.775,509.27 733.243,507.482 724.281,507.482C715.32,507.482 706.907,509.198 699.042,512.631C691.177,516.063 684.289,520.71 678.378,526.573C672.467,532.436 667.796,539.3 664.364,547.165C660.932,555.03 659.216,563.444 659.216,572.405C659.216,581.462 660.932,589.947 664.364,597.859C667.796,605.772 672.467,612.684 678.378,618.594C684.289,624.505 691.177,629.177 699.042,632.609C706.907,636.041 715.32,637.757 724.281,637.757C729.429,637.757 734.434,637.137 739.296,635.898C744.159,634.658 748.782,632.942 753.168,630.75L753.168,572.405L792.779,572.405L792.779,653.344Z" style="fill:white;"/>
                <path d="M1296,674.079L1286.56,674.079L1271.4,653.058C1267.69,656.394 1263.75,659.517 1259.61,662.424C1255.46,665.332 1251.1,667.858 1246.52,670.003C1241.95,672.148 1237.25,673.841 1232.44,675.08C1227.62,676.319 1222.74,676.939 1217.78,676.939C1207.01,676.939 1196.88,674.913 1187.39,670.861C1177.9,666.81 1169.61,661.185 1162.51,653.987C1155.41,646.79 1149.81,638.257 1145.71,628.39C1141.61,618.523 1139.56,607.774 1139.56,596.143C1139.56,584.608 1141.61,573.883 1145.71,563.968C1149.81,554.053 1155.41,545.473 1162.51,538.228C1169.61,530.982 1177.9,525.31 1187.39,521.211C1196.88,517.111 1207.01,515.062 1217.78,515.062C1221.21,515.062 1224.76,515.348 1228.43,515.92C1232.1,516.492 1235.68,517.421 1239.16,518.708C1242.64,519.995 1245.9,521.687 1248.95,523.785C1252,525.882 1254.58,528.456 1256.67,531.507L1256.67,460.006L1296,460.006L1296,674.079ZM1256.67,596.143C1256.67,590.805 1255.65,585.633 1253.6,580.628C1251.55,575.623 1248.76,571.19 1245.24,567.328C1241.71,563.467 1237.58,560.369 1232.87,558.033C1228.15,555.698 1223.12,554.53 1217.78,554.53C1212.44,554.53 1207.41,555.483 1202.69,557.39C1197.97,559.297 1193.87,562.037 1190.39,565.612C1186.91,569.188 1184.17,573.549 1182.17,578.697C1180.17,583.845 1179.17,589.661 1179.17,596.143C1179.17,601.768 1180.17,607.107 1182.17,612.159C1184.17,617.212 1186.91,621.645 1190.39,625.459C1193.87,629.272 1197.97,632.275 1202.69,634.468C1207.41,636.66 1212.44,637.757 1217.78,637.757C1223.12,637.757 1228.15,636.589 1232.87,634.253C1237.58,631.917 1241.71,628.819 1245.24,624.958C1248.76,621.097 1251.55,616.664 1253.6,611.659C1255.65,606.654 1256.67,601.482 1256.67,596.143Z" style="fill:white;"/>
                <g transform="matrix(1,0,0,1,0,6.35925)">
                    <path d="M710.099,883.169L673.396,883.169L673.396,735.97L618.084,735.97L618.084,699.139L760.354,703.526L759.949,736.073L710.099,735.97L710.099,883.169Z" style="fill:white;"/>
                </g>
                <g transform="matrix(53.738,0,0,4.0082,-21634.6,-317.905)">
                    <path d="M416.934,256.621C416.938,257.832 416.939,263.172 416.93,264.51C416.929,264.561 416.791,264.544 416.791,264.544L416.791,256.469C416.791,256.469 416.933,256.523 416.934,256.621Z" style="fill:white;"/>
                </g>
                <g transform="matrix(1,0,0,1,0,6.35925)">
                    <path d="M822.391,719.471C822.391,722.722 821.77,725.759 820.53,728.582C819.289,731.406 817.6,733.865 815.461,735.962C813.322,738.058 810.819,739.726 807.953,740.967C805.087,742.207 802.028,742.827 798.777,742.827C795.526,742.827 792.468,742.207 789.601,740.967C786.735,739.726 784.254,738.058 782.158,735.962C780.062,733.865 778.394,731.406 777.153,728.582C775.913,725.759 775.292,722.722 775.292,719.471C775.292,716.305 775.913,713.289 777.153,710.423C778.394,707.557 780.062,705.076 782.158,702.98C784.254,700.884 786.735,699.215 789.601,697.975C792.468,696.734 795.526,696.114 798.777,696.114C802.028,696.114 805.087,696.734 807.953,697.975C810.819,699.215 813.322,700.884 815.461,702.98C817.6,705.076 819.289,707.557 820.53,710.423C821.77,713.289 822.391,716.305 822.391,719.471ZM816.359,883.169L781.067,883.169L780.306,755.422L815.599,755.987L816.359,883.169Z" style="fill:white;"/>
                </g>
                <g transform="matrix(4.76791,0,0,4.88799,94.6669,-1013.18)">
                    <path d="M193.845,389.197L186.554,389.197L186.554,370.969C186.554,370.469 186.46,369.995 186.273,369.548C186.085,369.101 185.821,368.708 185.482,368.369C185.142,368.029 184.749,367.766 184.302,367.578C183.856,367.39 183.382,367.297 182.882,367.297C182.381,367.297 181.912,367.39 181.474,367.578C181.037,367.766 180.652,368.029 180.322,368.369C179.991,368.708 179.732,369.101 179.544,369.548C179.357,369.995 179.263,370.469 179.263,370.969L179.263,389.197L171.945,389.197L171.945,370.969C171.945,370.469 171.851,369.995 171.664,369.548C171.476,369.101 171.212,368.708 170.873,368.369C170.533,368.029 170.14,367.766 169.693,367.578C169.247,367.39 168.773,367.297 168.273,367.297C167.772,367.297 167.303,367.39 166.865,367.578C166.427,367.766 166.043,368.029 165.713,368.369C165.382,368.708 165.123,369.101 164.935,369.548C164.748,369.995 164.654,370.469 164.654,370.969L164.654,389.197L157.336,389.197L157.336,360.488L159.105,360.488L161.089,362.686C162.107,361.828 163.229,361.162 164.453,360.689C165.677,360.215 166.95,359.979 168.273,359.979C169.613,359.979 170.922,360.229 172.2,360.729C173.477,361.229 174.599,362.096 175.564,363.329C176.011,362.722 176.52,362.203 177.092,361.775C177.664,361.346 178.267,360.997 178.901,360.729C179.536,360.461 180.192,360.269 180.871,360.153C181.55,360.037 182.221,359.979 182.882,359.979C184.401,359.979 185.826,360.264 187.157,360.836C188.489,361.408 189.65,362.19 190.642,363.182C191.634,364.174 192.416,365.34 192.988,366.68C193.559,368.02 193.845,369.45 193.845,370.969L193.845,389.197Z" style="fill:white;"/>
                </g>
                <g transform="matrix(4.76791,0,0,4.88799,94.6669,-1013.18)">
                    <path d="M210.599,382.174C210.885,382.263 211.171,382.321 211.457,382.348C211.743,382.375 212.029,382.388 212.315,382.388C213.029,382.388 213.717,382.29 214.379,382.093C215.04,381.897 215.661,381.615 216.242,381.249C216.822,380.883 217.341,380.436 217.796,379.909C218.252,379.382 218.623,378.796 218.909,378.153L224.27,383.541C223.591,384.506 222.809,385.373 221.925,386.141C221.04,386.909 220.084,387.562 219.056,388.098C218.029,388.634 216.948,389.041 215.813,389.318C214.678,389.595 213.512,389.733 212.315,389.733C210.295,389.733 208.396,389.358 206.618,388.607C204.84,387.857 203.286,386.811 201.954,385.471C200.623,384.131 199.573,382.536 198.804,380.686C198.036,378.836 197.652,376.804 197.652,374.588C197.652,372.318 198.036,370.245 198.804,368.369C199.573,366.492 200.623,364.893 201.954,363.571C203.286,362.248 204.84,361.221 206.618,360.488C208.396,359.755 210.295,359.389 212.315,359.389C213.512,359.389 214.682,359.532 215.826,359.818C216.97,360.104 218.056,360.515 219.083,361.051C220.111,361.587 221.071,362.244 221.965,363.021C222.858,363.798 223.645,364.67 224.324,365.635L210.599,382.174ZM214.352,367.082C214.012,366.957 213.677,366.877 213.347,366.841C213.016,366.805 212.672,366.787 212.315,366.787C211.314,366.787 210.371,366.97 209.487,367.337C208.602,367.703 207.834,368.226 207.181,368.905C206.529,369.584 206.015,370.402 205.64,371.358C205.265,372.314 205.077,373.39 205.077,374.588C205.077,374.856 205.09,375.16 205.117,375.499C205.144,375.839 205.189,376.183 205.251,376.531C205.314,376.88 205.39,377.215 205.479,377.536C205.568,377.858 205.685,378.144 205.828,378.394L214.352,367.082Z" style="fill:white;"/>
                </g>
                <g transform="matrix(4.76791,0,0,4.88799,94.6669,-1013.18)">
                    <path d="M243.758,389.197L227.031,389.197L227.031,381.906L243.758,381.906C244.258,381.906 244.687,381.727 245.045,381.37C245.402,381.012 245.581,380.583 245.581,380.083C245.581,379.565 245.402,379.225 245.045,379.064C244.687,378.903 244.258,378.823 243.758,378.823L236.145,378.823C234.876,378.823 233.688,378.582 232.58,378.099C231.472,377.617 230.507,376.96 229.685,376.129C228.863,375.298 228.215,374.329 227.741,373.221C227.268,372.113 227.031,370.924 227.031,369.655C227.031,368.387 227.268,367.198 227.741,366.09C228.215,364.982 228.863,364.017 229.685,363.195C230.507,362.373 231.472,361.725 232.58,361.252C233.688,360.778 234.876,360.541 236.145,360.541L250.969,360.541L250.969,367.833L236.145,367.833C235.645,367.833 235.216,368.011 234.858,368.369C234.501,368.726 234.322,369.155 234.322,369.655C234.322,370.174 234.501,370.616 234.858,370.982C235.216,371.349 235.645,371.532 236.145,371.532L243.758,371.532C245.009,371.532 246.188,371.742 247.296,372.162C248.404,372.582 249.369,373.167 250.191,373.918C251.013,374.668 251.666,375.571 252.148,376.625C252.631,377.679 252.872,378.832 252.872,380.083C252.872,381.352 252.631,382.536 252.148,383.635C251.666,384.734 251.013,385.699 250.191,386.53C249.369,387.361 248.404,388.013 247.296,388.487C246.188,388.96 245.009,389.197 243.758,389.197Z" style="fill:white;"/>
                </g>
            </g>
            <g transform="matrix(0.252458,-0.141389,0.141389,0.252458,-39.3782,53.7881)">
                <path d="M1097.65,1116.62L1097.65,1191.4L1076.99,1191.4L1076.99,1142.4C1073.65,1144.94 1070.41,1147 1067.29,1148.57C1064.16,1150.14 1060.24,1151.64 1055.53,1153.08L1055.53,1136.33C1062.48,1134.09 1067.88,1131.4 1071.73,1128.26C1075.57,1125.12 1078.58,1121.24 1080.75,1116.62L1097.65,1116.62Z" style="fill:white;fill-rule:nonzero;"/>
            </g>
            <g transform="matrix(-0.195531,0.079227,-0.079227,-0.195531,501.129,212.993)">
                <path d="M293.61,62.03C343.32,59.44 393.76,72.48 435.82,99.16C469.25,120.17 497.45,149.42 517.27,183.56C538.51,219.91 550,261.87 550.26,303.97C550.66,346.17 539.87,388.41 519.17,425.2C498.91,461.37 469.26,492.23 433.96,513.97C395.78,537.62 350.93,550.35 306.02,550.25C266.28,550.29 226.55,540.46 191.49,521.73C165.36,507.83 141.77,489.09 122.34,466.77C87.22,427.14 65.76,375.63 62.3,322.77C59.62,284.54 66.13,245.7 81.17,210.44C101.68,162.08 138.35,120.82 183.83,94.56C217.11,75.13 255.13,63.93 293.61,62.03M390.02,174.08C370.42,176.59 352.89,188.56 341.47,204.41C326.98,224.36 321.12,249.73 322.93,274.12C324.91,299.8 334.32,325.21 351.02,344.98C361.88,358.1 376.1,368.54 392.12,374.43C408.39,380.3 426.84,380.99 443.03,374.47C460.98,367.24 476.13,353.82 486.41,337.51C505.74,306.66 508.05,265.77 491.86,233.1C481.35,211.53 463.75,193.28 442.07,182.81C426.03,175.04 407.74,171.74 390.02,174.08Z" style="fill:white;fill-rule:nonzero;"/>
            </g>
            <g transform="matrix(0.210973,0,0,0.210973,464.07,115.36)">
                <path d="M293.61,62.03C343.32,59.44 393.76,72.48 435.82,99.16C469.25,120.17 497.45,149.42 517.27,183.56C538.51,219.91 550,261.87 550.26,303.97C550.66,346.17 539.87,388.41 519.17,425.2C498.91,461.37 469.26,492.23 433.96,513.97C395.78,537.62 350.93,550.35 306.02,550.25C266.28,550.29 226.55,540.46 191.49,521.73C165.36,507.83 141.77,489.09 122.34,466.77C87.22,427.14 65.76,375.63 62.3,322.77C59.62,284.54 66.13,245.7 81.17,210.44C101.68,162.08 138.35,120.82 183.83,94.56C217.11,75.13 255.13,63.93 293.61,62.03M390.02,174.08C370.42,176.59 352.89,188.56 341.47,204.41C326.98,224.36 321.12,249.73 322.93,274.12C324.91,299.8 334.32,325.21 351.02,344.98C361.88,358.1 376.1,368.54 392.12,374.43C408.39,380.3 426.84,380.99 443.03,374.47C460.98,367.24 476.13,353.82 486.41,337.51C505.74,306.66 508.05,265.77 491.86,233.1C481.35,211.53 463.75,193.28 442.07,182.81C426.03,175.04 407.74,171.74 390.02,174.08Z" style="fill:white;fill-rule:nonzero;"/>
            </g>
            <g transform="matrix(0.209426,-0.0254989,0.0254989,0.209426,456.366,126.733)">
                <path d="M405.89,222.02C417.32,218.39 430.82,216.77 441.43,223.58C451.32,229.63 455.72,243.34 450.6,253.87C448.59,258.3 444.77,261.56 441.02,264.5C447.83,265.61 454.67,268.39 459.08,273.91C465.89,281.89 468.07,293.44 465.17,303.45C462.27,312.73 454.91,320.17 446.16,324.17C436.83,328.5 425.94,330.4 415.9,327.58C400.85,323.31 390.01,307.01 392.78,291.49C394.05,284.57 398.51,278.61 404.08,274.48C397.73,273.35 391.25,271.24 386.91,266.19C380.87,259.46 379.06,249.04 382.8,240.74C386.82,231.14 396.34,225.16 405.89,222.02M418.05,236.12C413.24,236.43 408.16,238.22 405.07,242.08C399.78,248.72 403.87,260.1 412.15,261.92C418.25,263.21 425.31,261.34 429.38,256.45C432.59,252.35 432.27,246.5 429.94,242.07C427.52,238.01 422.74,235.66 418.05,236.12M414.38,286.06C412,291.06 413.04,297.02 415.33,301.87C417.09,306.17 420.77,309.74 425.24,311.12C431.44,312.89 438.45,310.37 442.3,305.25C447.1,297.96 445.69,287.5 439.66,281.36C432.83,273.42 418.26,276.7 414.38,286.06Z" style="fill:white;fill-rule:nonzero;"/>
            </g>
        </g>
    </g>
</svg>
