<?xml version="1.0" encoding="UTF-8" standalone="no"?>
<!DOCTYPE svg PUBLIC "-//W3C//DTD SVG 1.1//EN" "http://www.w3.org/Graphics/SVG/1.1/DTD/svg11.dtd">
<svg width="100%" height="100%" viewBox="0 0 945 517" version="1.1" xmlns="http://www.w3.org/2000/svg" xmlns:xlink="http://www.w3.org/1999/xlink" xml:space="preserve" xmlns:serif="http://www.serif.com/" style="fill-rule:evenodd;clip-rule:evenodd;stroke-linejoin:round;stroke-miterlimit:2;">
    <g id="Layer1">
        <rect x="-13.823" y="-6.855" width="972.744" height="531.219" style="fill:rgb(19,19,20);"/>
    </g>
    <g id="_-ffffffff" serif:id="#ffffffff">
        <path d="M546.41,28.02C547.47,26.49 548.7,24.01 551,24.61C552.79,24.64 553.51,26.65 554.59,27.76C553.78,29.31 553.34,31.83 551.09,31.8C548.53,32.46 547.3,29.88 546.41,28.02Z" style="fill:rgb(85,85,85);fill-rule:nonzero;"/>
        <path d="M654.19,25.18C657.03,24.03 660.24,27.12 658.81,29.95C657.97,32.59 653.91,33.07 652.49,30.67C650.98,28.94 651.99,25.79 654.19,25.18Z" style="fill:rgb(85,85,85);fill-rule:nonzero;"/>
        <path d="M758.32,25.53C760.08,24.53 763.12,24.91 763.74,27.14C765.26,29.89 761.8,33.44 759.02,31.94C756.34,31.04 755.92,27 758.32,25.53Z" style="fill:rgb(85,85,85);fill-rule:nonzero;"/>
        <path d="M153.15,26.11C155.63,24.37 159.24,27.06 158.55,29.94C158.2,32.85 154.07,33.92 152.24,31.75C150.64,30.18 151.07,27.06 153.15,26.11Z" style="fill:rgb(85,85,85);fill-rule:nonzero;"/>
        <path d="M259.19,26.08C261.49,25.48 263.96,27.69 263.48,30.05C263.33,32.85 259.48,34.41 257.47,32.37C255.15,30.64 256.24,26.32 259.19,26.08Z" style="fill:rgb(85,85,85);fill-rule:nonzero;"/>
        <path d="M361.59,32.26C360.96,29.94 361,26.39 364.11,26.08C367.6,25.11 370.07,30.11 367.27,32.32C365.65,34.03 363.42,32.82 361.59,32.26Z" style="fill:rgb(85,85,85);fill-rule:nonzero;"/>
        <path d="M916.43,145.45C918.04,143.57 921.4,144.22 922.35,146.46C923.65,148.95 921.21,152.27 918.44,151.61C915.57,151.42 914.27,147.31 916.43,145.45Z" style="fill:rgb(85,85,85);fill-rule:nonzero;"/>
        <path d="M26.22,148.07C29.03,145.99 33.06,149.55 31.49,152.64C30.57,155.13 27.74,154.77 25.64,154.49C24.63,152.43 23.65,149.44 26.22,148.07Z" style="fill:rgb(85,85,85);fill-rule:nonzero;"/>
        <path d="M917.44,249.64C919.81,248.43 922.96,250.46 922.67,253.15C922.68,256.1 918.48,257.88 916.5,255.6C914.57,253.99 915.2,250.63 917.44,249.64Z" style="fill:rgb(85,85,85);fill-rule:nonzero;"/>
        <path d="M26.23,252.98C28.77,251.16 32.56,253.88 31.72,256.88C31.25,259.68 27.29,260.77 25.46,258.61C23.84,257.04 24.26,254.06 26.23,252.98Z" style="fill:rgb(85,85,85);fill-rule:nonzero;"/>
        <path d="M917.35,354.47C919.7,353.46 922.57,355.5 922.35,358.05C922.33,360.95 918.43,362.76 916.32,360.67C914.2,359.09 914.82,355.29 917.35,354.47Z" style="fill:rgb(85,85,85);fill-rule:nonzero;"/>
        <path d="M25.32,358.34C27.41,356.11 31.65,357.96 31.44,361C31.68,363.78 28.19,365.69 25.91,364.18C23.84,363.06 23.52,359.83 25.32,358.34Z" style="fill:rgb(85,85,85);fill-rule:nonzero;"/>
        <path d="M550.42,484.02C551.47,481.66 554.28,482.17 556.33,482.53C557.17,484.56 558.08,487.38 555.7,488.77C552.78,491.05 548.58,487.17 550.42,484.02Z" style="fill:rgb(85,85,85);fill-rule:nonzero;"/>
        <path d="M156.43,483.5C158.82,482.2 162.08,484.31 161.72,487.04C161.72,489.64 158.37,491.41 156.23,489.94C153.71,488.68 153.88,484.62 156.43,483.5Z" style="fill:rgb(85,85,85);fill-rule:nonzero;"/>
        <path d="M656.31,483.24C658.74,480.88 663.22,483.76 662.16,486.96C661.68,489.28 658.8,490.48 656.8,489.28C654.63,488.15 654.36,484.69 656.31,483.24Z" style="fill:rgb(85,85,85);fill-rule:nonzero;"/>
        <path d="M761.27,483.22C763.09,481.51 766.52,482.61 767.06,485.07C768.03,487.71 765.01,490.64 762.37,489.55C759.69,488.76 758.98,484.85 761.27,483.22Z" style="fill:rgb(85,85,85);fill-rule:nonzero;"/>
        <path d="M260.46,484.5C262.26,482.53 265.93,483.51 266.52,486.09C267.29,488.31 265.42,490.89 263.05,490.76C259.87,491.07 258.04,486.54 260.46,484.5Z" style="fill:rgb(85,85,85);fill-rule:nonzero;"/>
        <path d="M365.4,484.5C368.53,481.05 374.01,486.42 370.62,489.62C367.53,493.34 361.73,487.71 365.4,484.5Z" style="fill:rgb(85,85,85);fill-rule:nonzero;"/>
    </g>
    <g id="_-131314ff" serif:id="#131314ff">
        <path d="M30.19,11.29C323.14,11.21 616.1,11.38 909.06,11.38C913.35,11.5 917.81,10.82 921.92,12.47C928.94,14.63 934.06,21.62 933.99,28.98C934,177.31 933.99,325.65 933.99,473.99C933.94,478.02 934.22,482.08 933.78,486.11C932.7,494.2 925.26,500.84 917.08,500.88C622.05,500.7 327.03,500.46 32,500.26C22.13,500.77 13.15,491.84 13.5,481.99C13.52,333.65 13.5,185.32 13.51,36.98C13.55,33.7 13.35,30.41 13.63,27.13C14.49,18.85 21.81,11.66 30.19,11.29M448.83,29.93C446.86,33.47 447.36,37.63 447.43,41.51C449.19,41.5 450.95,41.5 452.72,41.49C453.08,38.62 452.76,35.22 455.13,33.09C464.76,22.71 483.7,23.39 492.39,34.66C494.26,36.72 493.53,39.63 493.23,42.09C493.69,45.67 495.47,48.86 497.12,52.01C495.56,55.61 493.97,59.32 491.16,62.15C484.81,69.08 474.26,71.77 465.42,68.45C457.77,65.9 452.15,59.21 449.82,51.62C451.53,48.51 452.9,45.22 453.88,41.8C431.6,41.45 409.32,41.74 387.05,41.65C282.51,41.57 177.96,41.81 73.42,41.53C73.57,41.9 73.85,42.64 74,43.01C70.43,34.95 61.82,29.59 52.99,30.17C39.75,29.76 27.74,41.71 28.15,54.96C27.71,63.58 34.19,71.03 42.04,73.75C41.58,195.74 41.32,317.73 40.97,439.72C35.84,441.93 31.1,445.88 29.24,451.28C26.02,461.07 30.14,472.58 38.65,478.34C49.36,486.41 67.21,483.74 73.5,471.38C198.07,471.39 322.64,471.48 447.2,471.34C447.33,475.24 446.88,479.47 448.96,482.98C454.17,492.36 465.36,497.85 475.98,496.42C488.23,495.38 499.26,484.95 500.08,472.53C499.78,472.41 499.17,472.19 498.87,472.07C497.4,471.92 495.94,471.69 494.5,471.46C493.93,474 493.82,476.9 491.86,478.86C482.49,489.58 463.44,489.77 454.42,478.5C452.53,476.5 453.06,473.64 453.37,471.18C453.2,468.42 452.06,465.9 450.85,463.47C454.81,454.48 464.02,447.92 474.02,448.34C483.53,448.35 492.08,454.67 496,463.15C495.16,465.83 492.33,468.54 493.65,471.39C620.16,471.44 746.72,471.47 873.25,471.38C878.19,481.09 890.75,485.4 900.88,481.95C911.49,478.86 919.27,468.07 918.58,457C918.38,449.3 912.77,442.47 905.74,439.75C905.44,317.77 905.06,195.79 904.68,73.8C911.11,71.36 916.99,66.04 918.2,59.02C920.24,48.39 914.11,37.07 904.39,32.52C893.7,27.19 878.84,30.73 873.23,41.69C748.12,41.76 623,41.61 497.9,41.77L498.45,41.47C499.95,39.71 499.1,37.13 498.84,35.08C496.59,26.69 489.56,19.99 481.36,17.4C469.4,13.13 454.73,18.62 448.83,29.93M546.41,28.02C547.3,29.88 548.53,32.46 551.09,31.8C553.34,31.83 553.78,29.31 554.59,27.76C553.51,26.65 552.79,24.64 551,24.61C548.7,24.01 547.47,26.49 546.41,28.02M654.19,25.18C651.99,25.79 650.98,28.94 652.49,30.67C653.91,33.07 657.97,32.59 658.81,29.95C660.24,27.12 657.03,24.03 654.19,25.18M758.32,25.53C755.92,27 756.34,31.04 759.02,31.94C761.8,33.44 765.26,29.89 763.74,27.14C763.12,24.91 760.08,24.53 758.32,25.53M153.15,26.11C151.07,27.06 150.64,30.18 152.24,31.75C154.07,33.92 158.2,32.85 158.55,29.94C159.24,27.06 155.63,24.37 153.15,26.11M259.19,26.08C256.24,26.32 255.15,30.64 257.47,32.37C259.48,34.41 263.33,32.85 263.48,30.05C263.96,27.69 261.49,25.48 259.19,26.08M361.59,32.26C363.42,32.82 365.65,34.03 367.27,32.32C370.07,30.11 367.6,25.11 364.11,26.08C361,26.39 360.96,29.94 361.59,32.26M916.43,145.45C914.27,147.31 915.57,151.42 918.44,151.61C921.21,152.27 923.65,148.95 922.35,146.46C921.4,144.22 918.04,143.57 916.43,145.45M26.22,148.07C23.65,149.44 24.63,152.43 25.64,154.49C27.74,154.77 30.57,155.13 31.49,152.64C33.06,149.55 29.03,145.99 26.22,148.07M917.44,249.64C915.2,250.63 914.57,253.99 916.5,255.6C918.48,257.88 922.68,256.1 922.67,253.15C922.96,250.46 919.81,248.43 917.44,249.64M26.23,252.98C24.26,254.06 23.84,257.04 25.46,258.61C27.29,260.77 31.25,259.68 31.72,256.88C32.56,253.88 28.77,251.16 26.23,252.98M917.35,354.47C914.82,355.29 914.2,359.09 916.32,360.67C918.43,362.76 922.33,360.95 922.35,358.05C922.57,355.5 919.7,353.46 917.35,354.47M25.32,358.34C23.52,359.83 23.84,363.06 25.91,364.18C28.19,365.69 31.68,363.78 31.44,361C31.65,357.96 27.41,356.11 25.32,358.34M550.42,484.02C548.58,487.17 552.78,491.05 555.7,488.77C558.08,487.38 557.17,484.56 556.33,482.53C554.28,482.17 551.47,481.66 550.42,484.02M156.43,483.5C153.88,484.62 153.71,488.68 156.23,489.94C158.37,491.41 161.72,489.64 161.72,487.04C162.08,484.31 158.82,482.2 156.43,483.5M656.31,483.24C654.36,484.69 654.63,488.15 656.8,489.28C658.8,490.48 661.68,489.28 662.16,486.96C663.22,483.76 658.74,480.88 656.31,483.24M761.27,483.22C758.98,484.85 759.69,488.76 762.37,489.55C765.01,490.64 768.03,487.71 767.06,485.07C766.52,482.61 763.09,481.51 761.27,483.22M260.46,484.5C258.04,486.54 259.87,491.07 263.05,490.76C265.42,490.89 267.29,488.31 266.52,486.09C265.93,483.51 262.26,482.53 260.46,484.5M365.4,484.5C361.73,487.71 367.53,493.34 370.62,489.62C374.01,486.42 368.53,481.05 365.4,484.5Z" style="fill:rgb(19,19,20);fill-rule:nonzero;"/>
        <path d="M34.73,54.07C36.52,43.03 47.67,33.74 59.02,35.76C64.88,36.42 68.34,41.71 71.92,45.76C72.66,45.57 74.14,45.18 74.89,44.99C78.2,48.46 82.2,51.19 85.76,54.41C85.71,61.77 84.23,69.49 79.25,75.19C73.77,82.14 64.86,85.43 56.18,85.44C52.6,82.66 50.17,78.73 46.83,75.69C47.24,74.34 47.66,72.99 48.08,71.64C44.15,69.73 39.78,68.46 36.43,65.57C33.95,62.36 34.14,57.88 34.73,54.07Z" style="fill:rgb(19,19,20);fill-rule:nonzero;"/>
        <path d="M871.67,46.17C878.32,44.51 880.74,36.03 887.98,35.7C902.99,33.21 916.32,50.08 911.28,64.18C908.61,68.27 903.27,69.18 899.13,71.18C899.16,72.65 899.2,74.12 899.26,75.58C896.54,78.84 893.76,82.06 891.15,85.39C883.04,85.46 874.65,82.99 869.01,76.92C863.07,71.16 860.88,62.73 860.97,54.67C864.56,51.87 867.97,48.84 871.67,46.17Z" style="fill:rgb(19,19,20);fill-rule:nonzero;"/>
        <path d="M56.45,427.71C65.03,427.68 73.82,430.98 79.21,437.86C84.15,443.54 85.84,451.2 85.59,458.57C82.03,461.27 78.81,464.43 74.98,466.75C69.72,468.52 67.12,473.88 62.41,476.4C50.35,481.17 36.57,471.21 34.73,458.99C34.21,455.19 33.91,450.69 36.47,447.53C39.68,444.69 43.92,443.49 47.78,441.78C47.64,440.43 47.51,439.09 47.39,437.75C50.57,434.56 53.67,431.27 56.45,427.71Z" style="fill:rgb(19,19,20);fill-rule:nonzero;"/>
        <path d="M866.3,439.4C871.92,431.33 881.9,427.11 891.62,427.87C894.53,430.95 897.19,434.27 900.14,437.32C899.68,438.79 899.26,440.27 898.83,441.75C903.07,443.75 908.37,444.77 911.19,448.83C916.6,463.24 902.27,480.58 887.04,477.26C880.38,476.29 878.14,468.35 871.67,466.96C867.98,464.27 864.58,461.23 860.99,458.42C861.08,451.78 862.15,444.82 866.3,439.4Z" style="fill:rgb(19,19,20);fill-rule:nonzero;"/>
    </g>
    <g id="_-3d3d3eff" serif:id="#3d3d3eff">
        <path d="M448.83,29.93C454.73,18.62 469.4,13.13 481.36,17.4C489.56,19.99 496.59,26.69 498.84,35.08C499.1,37.13 499.95,39.71 498.45,41.47L497.9,41.77C496.33,41.89 494.78,41.99 493.23,42.09C493.53,39.63 494.26,36.72 492.39,34.66C483.7,23.39 464.76,22.71 455.13,33.09C452.76,35.22 453.08,38.62 452.72,41.49C450.95,41.5 449.19,41.5 447.43,41.51C447.36,37.63 446.86,33.47 448.83,29.93Z" style="fill:rgb(61,61,62);fill-rule:nonzero;"/>
        <path d="M28.15,54.96C27.74,41.71 39.75,29.76 52.99,30.17C61.82,29.59 70.43,34.95 74,43.01C74.22,43.51 74.66,44.49 74.89,44.99C74.14,45.18 72.66,45.57 71.92,45.76C68.34,41.71 64.88,36.42 59.02,35.76C47.67,33.74 36.52,43.03 34.73,54.07C34.14,57.88 33.95,62.36 36.43,65.57C39.78,68.46 44.15,69.73 48.08,71.64C47.66,72.99 47.24,74.34 46.83,75.69C45.25,75 43.64,74.39 42.04,73.75C34.19,71.03 27.71,63.58 28.15,54.96Z" style="fill:rgb(61,61,62);fill-rule:nonzero;"/>
        <path d="M873.23,41.69C878.84,30.73 893.7,27.19 904.39,32.52C914.11,37.07 920.24,48.39 918.2,59.02C916.99,66.04 911.11,71.36 904.68,73.8C902.89,74.46 901.07,75.02 899.26,75.58C899.2,74.12 899.16,72.65 899.13,71.18C903.27,69.18 908.61,68.27 911.28,64.18C916.32,50.08 902.99,33.21 887.98,35.7C880.74,36.03 878.32,44.51 871.67,46.17C872.16,44.67 872.66,43.17 873.23,41.69Z" style="fill:rgb(61,61,62);fill-rule:nonzero;"/>
        <path d="M40.97,439.72C43.05,438.89 45.22,438.3 47.39,437.75C47.51,439.09 47.64,440.43 47.78,441.78C43.92,443.49 39.68,444.69 36.47,447.53C33.91,450.69 34.21,455.19 34.73,458.99C36.57,471.21 50.35,481.17 62.41,476.4C67.12,473.88 69.72,468.52 74.98,466.75C74.51,468.3 74.03,469.84 73.5,471.38C67.21,483.74 49.36,486.41 38.65,478.34C30.14,472.58 26.02,461.07 29.24,451.28C31.1,445.88 35.84,441.93 40.97,439.72Z" style="fill:rgb(61,61,62);fill-rule:nonzero;"/>
        <path d="M900.14,437.32C901.96,438.2 903.85,438.96 905.74,439.75C912.77,442.47 918.38,449.3 918.58,457C919.27,468.07 911.49,478.86 900.88,481.95C890.75,485.4 878.19,481.09 873.25,471.38C872.67,469.92 872.17,468.43 871.67,466.96C878.14,468.35 880.38,476.29 887.04,477.26C902.27,480.58 916.6,463.24 911.19,448.83C908.37,444.77 903.07,443.75 898.83,441.75C899.26,440.27 899.68,438.79 900.14,437.32Z" style="fill:rgb(61,61,62);fill-rule:nonzero;"/>
        <path d="M447.2,471.34C449.25,471.29 451.31,471.24 453.37,471.18C453.06,473.64 452.53,476.5 454.42,478.5C463.44,489.77 482.49,489.58 491.86,478.86C493.82,476.9 493.93,474 494.5,471.46C495.94,471.69 497.4,471.92 498.87,472.07C499.17,472.19 499.78,472.41 500.08,472.53C499.26,484.95 488.23,495.38 475.98,496.42C465.36,497.85 454.17,492.36 448.96,482.98C446.88,479.47 447.33,475.24 447.2,471.34Z" style="fill:rgb(61,61,62);fill-rule:nonzero;"/>
    </g>
    <g id="_-0081dfff" serif:id="#0081dfff">
        <path d="M74,43.01C73.85,42.64 73.57,41.9 73.42,41.53C177.96,41.81 282.51,41.57 387.05,41.65C409.32,41.74 431.6,41.45 453.88,41.8C452.9,45.22 451.53,48.51 449.82,51.62C448.54,54.07 447.21,56.48 445.87,58.9C329.59,58.69 213.29,58.78 97,58.81C92.8,58.96 88.84,57.19 85.76,54.41C82.2,51.19 78.2,48.46 74.89,44.99C74.66,44.49 74.22,43.51 74,43.01Z" style="fill:rgb(17,106,156);fill-rule:nonzero;"/>
        <path d="M493.23,42.09C494.78,41.99 496.33,41.89 497.9,41.77C623,41.61 748.12,41.76 873.23,41.69C872.66,43.17 872.16,44.67 871.67,46.17C867.97,48.84 864.56,51.87 860.97,54.67C857.56,57.32 853.37,58.92 849.03,58.82C733.05,58.8 617.07,58.68 501.09,58.92C499.73,56.64 498.39,54.34 497.12,52.01C495.47,48.86 493.69,45.67 493.23,42.09Z" style="fill:rgb(17,106,156);fill-rule:nonzero;"/>
        <path d="M42.04,73.75C43.64,74.39 45.25,75 46.83,75.69C50.17,78.73 52.6,82.66 56.18,85.44C57.91,92.51 57.39,99.8 57.36,106.99C57.41,206.67 57.32,306.35 57.29,406.03C57.2,413.25 57.91,420.57 56.45,427.71C53.67,431.27 50.57,434.56 47.39,437.75C45.22,438.3 43.05,438.89 40.97,439.72C41.32,317.73 41.58,195.74 42.04,73.75Z" style="fill:rgb(17,106,156);fill-rule:nonzero;"/>
        <path d="M899.26,75.58C901.07,75.02 902.89,74.46 904.68,73.8C905.06,195.79 905.44,317.77 905.74,439.75C903.85,438.96 901.96,438.2 900.14,437.32C897.19,434.27 894.53,430.95 891.62,427.87C888.83,425.37 889.13,421.43 889.11,418.03C889.3,407.02 889.19,396.01 889.22,385C889.17,287.68 889.2,190.36 889.04,93.04C889.06,90.36 889.71,87.68 891.15,85.39C893.76,82.06 896.54,78.84 899.26,75.58Z" style="fill:rgb(17,106,156);fill-rule:nonzero;"/>
        <path d="M85.59,458.57C88.58,456.25 92.06,454.24 95.97,454.27C211.32,454.19 326.69,454.39 442.04,454.07C447.52,453.39 448.63,459.86 450.85,463.47C452.06,465.9 453.2,468.42 453.37,471.18C451.31,471.24 449.25,471.29 447.2,471.34C322.64,471.48 198.07,471.39 73.5,471.38C74.03,469.84 74.51,468.3 74.98,466.75C78.81,464.43 82.03,461.27 85.59,458.57Z" style="fill:rgb(17,106,156);fill-rule:nonzero;"/>
        <path d="M500.82,454.79C503.75,453.79 506.92,454.06 509.98,454.03C517.99,454.26 526,454.19 534.02,454.19C639.01,454.33 744.01,454.43 849,454.21C853.38,454.07 857.59,455.7 860.99,458.42C864.58,461.23 867.98,464.27 871.67,466.96C872.17,468.43 872.67,469.92 873.25,471.38C746.72,471.47 620.16,471.44 493.65,471.39C492.33,468.54 495.16,465.83 496,463.15C497.44,460.28 498.58,457.15 500.82,454.79Z" style="fill:rgb(17,106,156);fill-rule:nonzero;"/>
    </g>
    <g id="_-0268d3ff" serif:id="#0268d3ff">
        <path d="M445.87,58.9C447.21,56.48 448.54,54.07 449.82,51.62C452.15,59.21 457.77,65.9 465.42,68.45C474.26,71.77 484.81,69.08 491.16,62.15C493.97,59.32 495.56,55.61 497.12,52.01C498.39,54.34 499.73,56.64 501.09,58.92C617.07,58.68 733.05,58.8 849.03,58.82C853.37,58.92 857.56,57.32 860.97,54.67C860.88,62.73 863.07,71.16 869.01,76.92C874.65,82.99 883.04,85.46 891.15,85.39C889.71,87.68 889.06,90.36 889.04,93.04C889.2,190.36 889.17,287.68 889.22,385C889.19,396.01 889.3,407.02 889.11,418.03C889.13,421.43 888.83,425.37 891.62,427.87C881.9,427.11 871.92,431.33 866.3,439.4C862.15,444.82 861.08,451.78 860.99,458.42C857.59,455.7 853.38,454.07 849,454.21C744.01,454.43 639.01,454.33 534.02,454.19C526,454.19 517.99,454.26 509.98,454.03C506.92,454.06 503.75,453.79 500.82,454.79C498.58,457.15 497.44,460.28 496,463.15C492.08,454.67 483.53,448.35 474.02,448.34C464.02,447.92 454.81,454.48 450.85,463.47C448.63,459.86 447.52,453.39 442.04,454.07C326.69,454.39 211.32,454.19 95.97,454.27C92.06,454.24 88.58,456.25 85.59,458.57C85.84,451.2 84.15,443.54 79.21,437.86C73.82,430.98 65.03,427.68 56.45,427.71C57.91,420.57 57.2,413.25 57.29,406.03C57.32,306.35 57.41,206.67 57.36,106.99C57.39,99.8 57.91,92.51 56.18,85.44C64.86,85.43 73.77,82.14 79.25,75.19C84.23,69.49 85.71,61.77 85.76,54.41C88.84,57.19 92.8,58.96 97,58.81C213.29,58.78 329.59,58.69 445.87,58.9Z" style="fill:rgb(29,131,188);fill-rule:nonzero;"/>
    </g>
    <g transform="matrix(0.469136,0,0,0.469136,256.887,141.988)">
        <g opacity="0.25">
            <g transform="matrix(0.688699,0,0,0.688699,-195.439,-236.427)">
                <g transform="matrix(290.402,0,0,290.402,613.541,674.079)">
                    <path d="M0.622,-0.071C0.59,-0.043 0.553,-0.022 0.513,-0.007C0.473,0.008 0.431,0.015 0.388,0.015C0.355,0.015 0.323,0.011 0.292,0.002C0.261,-0.006 0.233,-0.019 0.206,-0.034C0.179,-0.05 0.155,-0.069 0.133,-0.091C0.111,-0.113 0.092,-0.137 0.076,-0.164C0.061,-0.191 0.048,-0.22 0.04,-0.251C0.031,-0.282 0.027,-0.314 0.027,-0.347C0.027,-0.38 0.031,-0.412 0.04,-0.443C0.048,-0.473 0.061,-0.502 0.076,-0.529C0.092,-0.556 0.111,-0.58 0.133,-0.602C0.155,-0.624 0.179,-0.643 0.206,-0.659C0.233,-0.674 0.261,-0.686 0.292,-0.695C0.323,-0.704 0.355,-0.708 0.388,-0.708C0.431,-0.708 0.473,-0.701 0.513,-0.686C0.553,-0.671 0.59,-0.65 0.622,-0.622L0.549,-0.5C0.528,-0.521 0.503,-0.538 0.476,-0.551C0.448,-0.563 0.419,-0.569 0.388,-0.569C0.358,-0.569 0.329,-0.563 0.302,-0.551C0.275,-0.54 0.252,-0.524 0.231,-0.504C0.211,-0.484 0.195,-0.46 0.184,-0.433C0.172,-0.406 0.166,-0.378 0.166,-0.347C0.166,-0.316 0.172,-0.287 0.184,-0.26C0.195,-0.233 0.211,-0.21 0.231,-0.189C0.252,-0.169 0.275,-0.153 0.302,-0.142C0.329,-0.13 0.358,-0.124 0.388,-0.124C0.406,-0.124 0.423,-0.126 0.439,-0.13C0.456,-0.135 0.472,-0.14 0.487,-0.148L0.487,-0.347L0.622,-0.347L0.622,-0.071Z" style="fill:white;fill-rule:nonzero;"/>
                </g>
                <g transform="matrix(290.402,0,0,290.402,1131.67,674.079)">
                    <path d="M0.556,-0L0.524,-0L0.472,-0.072C0.459,-0.06 0.446,-0.05 0.432,-0.04C0.418,-0.03 0.403,-0.021 0.387,-0.014C0.372,-0.007 0.356,-0.001 0.339,0.003C0.323,0.008 0.306,0.01 0.289,0.01C0.252,0.01 0.218,0.003 0.185,-0.011C0.153,-0.025 0.125,-0.044 0.1,-0.069C0.076,-0.093 0.057,-0.122 0.043,-0.156C0.029,-0.19 0.022,-0.226 0.022,-0.266C0.022,-0.306 0.029,-0.342 0.043,-0.376C0.057,-0.41 0.076,-0.439 0.1,-0.464C0.125,-0.489 0.153,-0.508 0.185,-0.522C0.218,-0.536 0.252,-0.543 0.289,-0.543C0.301,-0.543 0.313,-0.542 0.325,-0.54C0.338,-0.538 0.35,-0.535 0.362,-0.531C0.374,-0.526 0.385,-0.52 0.396,-0.513C0.406,-0.506 0.415,-0.497 0.422,-0.487L0.422,-0.731L0.556,-0.731L0.556,-0ZM0.422,-0.266C0.422,-0.284 0.418,-0.302 0.411,-0.319C0.404,-0.336 0.395,-0.351 0.383,-0.365C0.371,-0.378 0.357,-0.388 0.341,-0.396C0.324,-0.404 0.307,-0.408 0.289,-0.408C0.271,-0.408 0.254,-0.405 0.238,-0.398C0.221,-0.392 0.207,-0.383 0.196,-0.37C0.184,-0.358 0.174,-0.343 0.167,-0.326C0.161,-0.308 0.157,-0.288 0.157,-0.266C0.157,-0.247 0.161,-0.229 0.167,-0.211C0.174,-0.194 0.184,-0.179 0.196,-0.166C0.207,-0.153 0.221,-0.143 0.238,-0.135C0.254,-0.128 0.271,-0.124 0.289,-0.124C0.307,-0.124 0.324,-0.128 0.341,-0.136C0.357,-0.144 0.371,-0.155 0.383,-0.168C0.395,-0.181 0.404,-0.196 0.411,-0.213C0.418,-0.23 0.422,-0.248 0.422,-0.266Z" style="fill:white;fill-rule:nonzero;"/>
                </g>
                <g transform="matrix(262.827,0,0,262.827,615.774,883.169)">
                    <path d="M0.359,-0L0.219,-0L0.219,-0.56L0.009,-0.56L0.009,-0.7L0.569,-0.7L0.569,-0.56L0.359,-0.56L0.359,-0Z" style="fill:white;fill-rule:nonzero;"/>
                </g>
                <g transform="matrix(262.827,0,0,262.827,767.721,883.169)">
                    <path d="M0.208,-0.665C0.208,-0.653 0.206,-0.641 0.201,-0.63C0.196,-0.62 0.19,-0.61 0.182,-0.602C0.174,-0.594 0.164,-0.588 0.153,-0.583C0.142,-0.579 0.131,-0.576 0.118,-0.576C0.106,-0.576 0.094,-0.579 0.083,-0.583C0.072,-0.588 0.063,-0.594 0.055,-0.602C0.047,-0.61 0.041,-0.62 0.036,-0.63C0.031,-0.641 0.029,-0.653 0.029,-0.665C0.029,-0.677 0.031,-0.689 0.036,-0.699C0.041,-0.71 0.047,-0.72 0.055,-0.728C0.063,-0.736 0.072,-0.742 0.083,-0.747C0.094,-0.752 0.106,-0.754 0.118,-0.754C0.131,-0.754 0.142,-0.752 0.153,-0.747C0.164,-0.742 0.174,-0.736 0.182,-0.728C0.19,-0.72 0.196,-0.71 0.201,-0.699C0.206,-0.689 0.208,-0.677 0.208,-0.665ZM0.185,-0L0.051,-0L0.051,-0.523L0.185,-0.523L0.185,-0Z" style="fill:white;fill-rule:nonzero;"/>
                </g>
                <g transform="matrix(262.827,0,0,262.827,829.706,883.169)">
                    <path d="M0.716,-0L0.583,-0L0.583,-0.332C0.583,-0.341 0.581,-0.35 0.578,-0.358C0.574,-0.366 0.57,-0.373 0.563,-0.379C0.557,-0.386 0.55,-0.39 0.542,-0.394C0.534,-0.397 0.525,-0.399 0.516,-0.399C0.507,-0.399 0.498,-0.397 0.49,-0.394C0.483,-0.39 0.476,-0.386 0.469,-0.379C0.463,-0.373 0.459,-0.366 0.455,-0.358C0.452,-0.35 0.45,-0.341 0.45,-0.332L0.45,-0L0.317,-0L0.317,-0.332C0.317,-0.341 0.315,-0.35 0.312,-0.358C0.308,-0.366 0.304,-0.373 0.297,-0.379C0.291,-0.386 0.284,-0.39 0.276,-0.394C0.268,-0.397 0.259,-0.399 0.25,-0.399C0.241,-0.399 0.232,-0.397 0.224,-0.394C0.216,-0.39 0.209,-0.386 0.203,-0.379C0.197,-0.373 0.193,-0.366 0.189,-0.358C0.186,-0.35 0.184,-0.341 0.184,-0.332L0.184,-0L0.051,-0L0.051,-0.523L0.083,-0.523L0.119,-0.483C0.138,-0.499 0.158,-0.511 0.18,-0.519C0.203,-0.528 0.226,-0.532 0.25,-0.532C0.274,-0.532 0.298,-0.528 0.322,-0.519C0.345,-0.509 0.365,-0.494 0.383,-0.471C0.391,-0.482 0.4,-0.492 0.411,-0.5C0.421,-0.507 0.432,-0.514 0.444,-0.519C0.455,-0.523 0.467,-0.527 0.479,-0.529C0.492,-0.531 0.504,-0.532 0.516,-0.532C0.544,-0.532 0.57,-0.527 0.594,-0.517C0.618,-0.506 0.639,-0.492 0.657,-0.474C0.676,-0.456 0.69,-0.435 0.7,-0.41C0.711,-0.386 0.716,-0.36 0.716,-0.332L0.716,-0Z" style="fill:white;fill-rule:nonzero;"/>
                </g>
                <g transform="matrix(262.827,0,0,262.827,1030.03,883.169)">
                    <path d="M0.259,-0.128C0.264,-0.126 0.269,-0.125 0.274,-0.125C0.28,-0.124 0.285,-0.124 0.29,-0.124C0.303,-0.124 0.316,-0.126 0.328,-0.129C0.34,-0.133 0.351,-0.138 0.362,-0.145C0.372,-0.151 0.382,-0.16 0.39,-0.169C0.398,-0.179 0.405,-0.189 0.41,-0.201L0.508,-0.103C0.495,-0.085 0.481,-0.07 0.465,-0.056C0.449,-0.042 0.432,-0.03 0.413,-0.02C0.394,-0.01 0.374,-0.003 0.354,0.002C0.333,0.007 0.312,0.01 0.29,0.01C0.253,0.01 0.219,0.003 0.186,-0.011C0.154,-0.024 0.126,-0.043 0.101,-0.068C0.077,-0.092 0.058,-0.121 0.044,-0.155C0.03,-0.189 0.023,-0.226 0.023,-0.266C0.023,-0.307 0.03,-0.345 0.044,-0.379C0.058,-0.414 0.077,-0.443 0.101,-0.467C0.126,-0.491 0.154,-0.51 0.186,-0.523C0.219,-0.536 0.253,-0.543 0.29,-0.543C0.312,-0.543 0.333,-0.54 0.354,-0.535C0.375,-0.53 0.395,-0.522 0.413,-0.513C0.432,-0.503 0.45,-0.491 0.466,-0.477C0.482,-0.463 0.496,-0.447 0.509,-0.429L0.259,-0.128ZM0.327,-0.403C0.321,-0.405 0.315,-0.407 0.309,-0.407C0.303,-0.408 0.297,-0.408 0.29,-0.408C0.272,-0.408 0.255,-0.405 0.239,-0.398C0.222,-0.392 0.208,-0.382 0.197,-0.37C0.185,-0.357 0.175,-0.342 0.168,-0.325C0.162,-0.308 0.158,-0.288 0.158,-0.266C0.158,-0.261 0.158,-0.256 0.159,-0.25C0.159,-0.243 0.16,-0.237 0.161,-0.231C0.163,-0.224 0.164,-0.218 0.166,-0.212C0.167,-0.207 0.169,-0.201 0.172,-0.197L0.327,-0.403Z" style="fill:white;fill-rule:nonzero;"/>
                </g>
                <g transform="matrix(262.827,0,0,262.827,1167.99,883.169)">
                    <path d="M0.338,-0L0.033,-0L0.033,-0.133L0.338,-0.133C0.347,-0.133 0.355,-0.136 0.361,-0.143C0.368,-0.149 0.371,-0.157 0.371,-0.166C0.371,-0.175 0.368,-0.182 0.361,-0.185C0.355,-0.188 0.347,-0.189 0.338,-0.189L0.199,-0.189C0.176,-0.189 0.154,-0.193 0.134,-0.202C0.114,-0.211 0.097,-0.223 0.082,-0.238C0.067,-0.253 0.055,-0.271 0.046,-0.291C0.038,-0.311 0.033,-0.333 0.033,-0.356C0.033,-0.379 0.038,-0.401 0.046,-0.421C0.055,-0.441 0.067,-0.459 0.082,-0.474C0.097,-0.489 0.114,-0.5 0.134,-0.509C0.154,-0.518 0.176,-0.522 0.199,-0.522L0.469,-0.522L0.469,-0.389L0.199,-0.389C0.19,-0.389 0.182,-0.386 0.176,-0.379C0.169,-0.373 0.166,-0.365 0.166,-0.356C0.166,-0.347 0.169,-0.338 0.176,-0.332C0.182,-0.325 0.19,-0.322 0.199,-0.322L0.338,-0.322C0.361,-0.322 0.382,-0.318 0.402,-0.31C0.423,-0.303 0.44,-0.292 0.455,-0.278C0.47,-0.265 0.482,-0.248 0.491,-0.229C0.5,-0.21 0.504,-0.189 0.504,-0.166C0.504,-0.143 0.5,-0.121 0.491,-0.101C0.482,-0.081 0.47,-0.064 0.455,-0.049C0.44,-0.033 0.423,-0.022 0.402,-0.013C0.382,-0.004 0.361,-0 0.338,-0Z" style="fill:white;fill-rule:nonzero;"/>
                </g>
            </g>
            <g transform="matrix(0.252458,-0.141389,0.141389,0.252458,-39.3782,53.7881)">
                <g transform="matrix(102.704,0,0,102.704,1047.15,1191.4)">
                    <path d="M0.492,-0.728L0.492,-0L0.291,-0L0.291,-0.477C0.258,-0.452 0.226,-0.432 0.196,-0.417C0.166,-0.402 0.127,-0.387 0.082,-0.373L0.082,-0.536C0.149,-0.558 0.202,-0.584 0.239,-0.615C0.277,-0.645 0.306,-0.683 0.327,-0.728L0.492,-0.728Z" style="fill:white;fill-rule:nonzero;"/>
                </g>
            </g>
            <g transform="matrix(-0.195531,0.079227,-0.079227,-0.195531,501.129,212.993)">
                <path d="M293.61,62.03C343.32,59.44 393.76,72.48 435.82,99.16C469.25,120.17 497.45,149.42 517.27,183.56C538.51,219.91 550,261.87 550.26,303.97C550.66,346.17 539.87,388.41 519.17,425.2C498.91,461.37 469.26,492.23 433.96,513.97C395.78,537.62 350.93,550.35 306.02,550.25C266.28,550.29 226.55,540.46 191.49,521.73C165.36,507.83 141.77,489.09 122.34,466.77C87.22,427.14 65.76,375.63 62.3,322.77C59.62,284.54 66.13,245.7 81.17,210.44C101.68,162.08 138.35,120.82 183.83,94.56C217.11,75.13 255.13,63.93 293.61,62.03M390.02,174.08C370.42,176.59 352.89,188.56 341.47,204.41C326.98,224.36 321.12,249.73 322.93,274.12C324.91,299.8 334.32,325.21 351.02,344.98C361.88,358.1 376.1,368.54 392.12,374.43C408.39,380.3 426.84,380.99 443.03,374.47C460.98,367.24 476.13,353.82 486.41,337.51C505.74,306.66 508.05,265.77 491.86,233.1C481.35,211.53 463.75,193.28 442.07,182.81C426.03,175.04 407.74,171.74 390.02,174.08Z" style="fill:white;fill-rule:nonzero;"/>
            </g>
            <g transform="matrix(0.210973,0,0,0.210973,464.07,115.36)">
                <path d="M293.61,62.03C343.32,59.44 393.76,72.48 435.82,99.16C469.25,120.17 497.45,149.42 517.27,183.56C538.51,219.91 550,261.87 550.26,303.97C550.66,346.17 539.87,388.41 519.17,425.2C498.91,461.37 469.26,492.23 433.96,513.97C395.78,537.62 350.93,550.35 306.02,550.25C266.28,550.29 226.55,540.46 191.49,521.73C165.36,507.83 141.77,489.09 122.34,466.77C87.22,427.14 65.76,375.63 62.3,322.77C59.62,284.54 66.13,245.7 81.17,210.44C101.68,162.08 138.35,120.82 183.83,94.56C217.11,75.13 255.13,63.93 293.61,62.03M390.02,174.08C370.42,176.59 352.89,188.56 341.47,204.41C326.98,224.36 321.12,249.73 322.93,274.12C324.91,299.8 334.32,325.21 351.02,344.98C361.88,358.1 376.1,368.54 392.12,374.43C408.39,380.3 426.84,380.99 443.03,374.47C460.98,367.24 476.13,353.82 486.41,337.51C505.74,306.66 508.05,265.77 491.86,233.1C481.35,211.53 463.75,193.28 442.07,182.81C426.03,175.04 407.74,171.74 390.02,174.08Z" style="fill:white;fill-rule:nonzero;"/>
            </g>
            <g transform="matrix(0.209426,-0.0254989,0.0254989,0.209426,456.366,126.733)">
                <path d="M405.89,222.02C417.32,218.39 430.82,216.77 441.43,223.58C451.32,229.63 455.72,243.34 450.6,253.87C448.59,258.3 444.77,261.56 441.02,264.5C447.83,265.61 454.67,268.39 459.08,273.91C465.89,281.89 468.07,293.44 465.17,303.45C462.27,312.73 454.91,320.17 446.16,324.17C436.83,328.5 425.94,330.4 415.9,327.58C400.85,323.31 390.01,307.01 392.78,291.49C394.05,284.57 398.51,278.61 404.08,274.48C397.73,273.35 391.25,271.24 386.91,266.19C380.87,259.46 379.06,249.04 382.8,240.74C386.82,231.14 396.34,225.16 405.89,222.02M418.05,236.12C413.24,236.43 408.16,238.22 405.07,242.08C399.78,248.72 403.87,260.1 412.15,261.92C418.25,263.21 425.31,261.34 429.38,256.45C432.59,252.35 432.27,246.5 429.94,242.07C427.52,238.01 422.74,235.66 418.05,236.12M414.38,286.06C412,291.06 413.04,297.02 415.33,301.87C417.09,306.17 420.77,309.74 425.24,311.12C431.44,312.89 438.45,310.37 442.3,305.25C447.1,297.96 445.69,287.5 439.66,281.36C432.83,273.42 418.26,276.7 414.38,286.06Z" style="fill:white;fill-rule:nonzero;"/>
            </g>
        </g>
    </g>
</svg>
