<?xml version="1.0" encoding="UTF-8" standalone="no"?>
<!DOCTYPE svg PUBLIC "-//W3C//DTD SVG 1.1//EN" "http://www.w3.org/Graphics/SVG/1.1/DTD/svg11.dtd">
<svg width="100%" height="100%" viewBox="0 0 2893 445" version="1.1" xmlns="http://www.w3.org/2000/svg" xmlns:xlink="http://www.w3.org/1999/xlink" xml:space="preserve" xmlns:serif="http://www.serif.com/" style="fill-rule:evenodd;clip-rule:evenodd;stroke-linejoin:round;stroke-miterlimit:2;">
    <g id="Artboard1" transform="matrix(1.12913,0,0,0.721492,0.663948,2.50271)">
        <rect x="-0.588" y="-3.469" width="2562.11" height="615.865" style="fill:none;"/>
        <g transform="matrix(0.88564,0,0,1,23.845,6.66134e-15)">
            <g transform="matrix(1.79623,-3.84697e-17,0,2.48961,-1096.26,-1108.25)">
                <path d="M792.779,653.344C783.246,661.447 772.616,667.668 760.89,672.005C749.164,676.343 736.961,678.512 724.281,678.512C714.557,678.512 705.191,677.249 696.182,674.722C687.173,672.196 678.759,668.621 670.942,663.997C663.124,659.374 655.974,653.844 649.492,647.409C643.009,640.974 637.48,633.824 632.904,625.959C628.327,618.094 624.776,609.633 622.25,600.576C619.724,591.52 618.46,582.129 618.46,572.405C618.46,562.681 619.724,553.338 622.25,544.377C624.776,535.415 628.327,527.002 632.904,519.137C637.48,511.272 643.009,504.122 649.492,497.687C655.974,491.252 663.124,485.746 670.942,481.17C678.759,476.594 687.173,473.043 696.182,470.517C705.191,467.99 714.557,466.727 724.281,466.727C736.961,466.727 749.164,468.896 760.89,473.234C772.616,477.571 783.246,483.792 792.779,491.895L771.329,527.646C765.132,521.354 757.982,516.42 749.879,512.845C741.775,509.27 733.243,507.482 724.281,507.482C715.32,507.482 706.907,509.198 699.042,512.631C691.177,516.063 684.289,520.71 678.378,526.573C672.467,532.436 667.796,539.3 664.364,547.165C660.932,555.03 659.216,563.444 659.216,572.405C659.216,581.462 660.932,589.947 664.364,597.859C667.796,605.772 672.467,612.684 678.378,618.594C684.289,624.505 691.177,629.177 699.042,632.609C706.907,636.041 715.32,637.757 724.281,637.757C729.429,637.757 734.434,637.137 739.296,635.898C744.159,634.658 748.782,632.942 753.168,630.75L753.168,572.405L792.779,572.405L792.779,653.344Z" style="fill:white;"/>
            </g>
            <g transform="matrix(1.79623,0,0,2.48961,-1090.55,-1108.25)">
                <path d="M1296,674.079L1286.56,674.079L1271.4,653.058C1267.69,656.394 1263.75,659.517 1259.61,662.424C1255.46,665.332 1251.1,667.858 1246.52,670.003C1241.95,672.148 1237.25,673.841 1232.44,675.08C1227.62,676.319 1222.74,676.939 1217.78,676.939C1207.01,676.939 1196.88,674.913 1187.39,670.861C1177.9,666.81 1169.61,661.185 1162.51,653.987C1155.41,646.79 1149.81,638.257 1145.71,628.39C1141.61,618.523 1139.56,607.774 1139.56,596.143C1139.56,584.608 1141.61,573.883 1145.71,563.968C1149.81,554.053 1155.41,545.473 1162.51,538.228C1169.61,530.982 1177.9,525.31 1187.39,521.211C1196.88,517.111 1207.01,515.062 1217.78,515.062C1221.21,515.062 1224.76,515.348 1228.43,515.92C1232.1,516.492 1235.68,517.421 1239.16,518.708C1242.64,519.995 1245.9,521.687 1248.95,523.785C1252,525.882 1254.58,528.456 1256.67,531.507L1256.67,460.006L1296,460.006L1296,674.079ZM1256.67,596.143C1256.67,590.805 1255.65,585.633 1253.6,580.628C1251.55,575.623 1248.76,571.19 1245.24,567.328C1241.71,563.467 1237.58,560.369 1232.87,558.033C1228.15,555.698 1223.12,554.53 1217.78,554.53C1212.44,554.53 1207.41,555.483 1202.69,557.39C1197.97,559.297 1193.87,562.037 1190.39,565.612C1186.91,569.188 1184.17,573.549 1182.17,578.697C1180.17,583.845 1179.17,589.661 1179.17,596.143C1179.17,601.768 1180.17,607.107 1182.17,612.159C1184.17,617.212 1186.91,621.645 1190.39,625.459C1193.87,629.272 1197.97,632.275 1202.69,634.468C1207.41,636.66 1212.44,637.757 1217.78,637.757C1223.12,637.757 1228.15,636.589 1232.87,634.253C1237.58,631.917 1241.71,628.819 1245.24,624.958C1248.76,621.097 1251.55,616.664 1253.6,611.659C1255.65,606.654 1256.67,601.482 1256.67,596.143Z" style="fill:white;"/>
            </g>
            <g transform="matrix(0.658449,-0.511112,0.368764,0.91262,-689.23,-59.1433)">
                <path d="M1097.65,1116.62L1097.65,1191.4L1076.99,1191.4L1076.99,1142.4C1073.65,1144.94 1070.41,1147 1067.29,1148.57C1064.16,1150.14 1060.24,1151.64 1055.53,1153.08L1055.53,1136.33C1062.48,1134.09 1067.88,1131.4 1071.73,1128.26C1075.57,1125.12 1078.58,1121.24 1080.75,1116.62L1097.65,1116.62Z" style="fill:white;fill-rule:nonzero;"/>
            </g>
            <g transform="matrix(-0.509976,0.286401,-0.206636,-0.706835,720.496,516.372)">
                <path d="M293.61,62.03C343.32,59.44 393.76,72.48 435.82,99.16C469.25,120.17 497.45,149.42 517.27,183.56C538.51,219.91 550,261.87 550.26,303.97C550.66,346.17 539.87,388.41 519.17,425.2C498.91,461.37 469.26,492.23 433.96,513.97C395.78,537.62 350.93,550.35 306.02,550.25C266.28,550.29 226.55,540.46 191.49,521.73C165.36,507.83 141.77,489.09 122.34,466.77C87.22,427.14 65.76,375.63 62.3,322.77C59.62,284.54 66.13,245.7 81.17,210.44C101.68,162.08 138.35,120.82 183.83,94.56C217.11,75.13 255.13,63.93 293.61,62.03M390.02,174.08C370.42,176.59 352.89,188.56 341.47,204.41C326.98,224.36 321.12,249.73 322.93,274.12C324.91,299.8 334.32,325.21 351.02,344.98C361.88,358.1 376.1,368.54 392.12,374.43C408.39,380.3 426.84,380.99 443.03,374.47C460.98,367.24 476.13,353.82 486.41,337.51C505.74,306.66 508.05,265.77 491.86,233.1C481.35,211.53 463.75,193.28 442.07,182.81C426.03,175.04 407.74,171.74 390.02,174.08Z" style="fill:white;fill-rule:nonzero;"/>
            </g>
            <g transform="matrix(0.550249,0,1.38778e-17,0.762654,623.84,163.434)">
                <path d="M293.61,62.03C343.32,59.44 393.76,72.48 435.82,99.16C469.25,120.17 497.45,149.42 517.27,183.56C538.51,219.91 550,261.87 550.26,303.97C550.66,346.17 539.87,388.41 519.17,425.2C498.91,461.37 469.26,492.23 433.96,513.97C395.78,537.62 350.93,550.35 306.02,550.25C266.28,550.29 226.55,540.46 191.49,521.73C165.36,507.83 141.77,489.09 122.34,466.77C87.22,427.14 65.76,375.63 62.3,322.77C59.62,284.54 66.13,245.7 81.17,210.44C101.68,162.08 138.35,120.82 183.83,94.56C217.11,75.13 255.13,63.93 293.61,62.03M390.02,174.08C370.42,176.59 352.89,188.56 341.47,204.41C326.98,224.36 321.12,249.73 322.93,274.12C324.91,299.8 334.32,325.21 351.02,344.98C361.88,358.1 376.1,368.54 392.12,374.43C408.39,380.3 426.84,380.99 443.03,374.47C460.98,367.24 476.13,353.82 486.41,337.51C505.74,306.66 508.05,265.77 491.86,233.1C481.35,211.53 463.75,193.28 442.07,182.81C426.03,175.04 407.74,171.74 390.02,174.08Z" style="fill:white;fill-rule:nonzero;"/>
            </g>
            <g transform="matrix(0.546215,-0.0921771,0.0665051,0.757063,603.747,204.546)">
                <path d="M405.89,222.02C417.32,218.39 430.82,216.77 441.43,223.58C451.32,229.63 455.72,243.34 450.6,253.87C448.59,258.3 444.77,261.56 441.02,264.5C447.83,265.61 454.67,268.39 459.08,273.91C465.89,281.89 468.07,293.44 465.17,303.45C462.27,312.73 454.91,320.17 446.16,324.17C436.83,328.5 425.94,330.4 415.9,327.58C400.85,323.31 390.01,307.01 392.78,291.49C394.05,284.57 398.51,278.61 404.08,274.48C397.73,273.35 391.25,271.24 386.91,266.19C380.87,259.46 379.06,249.04 382.8,240.74C386.82,231.14 396.34,225.16 405.89,222.02M418.05,236.12C413.24,236.43 408.16,238.22 405.07,242.08C399.78,248.72 403.87,260.1 412.15,261.92C418.25,263.21 425.31,261.34 429.38,256.45C432.59,252.35 432.27,246.5 429.94,242.07C427.52,238.01 422.74,235.66 418.05,236.12M414.38,286.06C412,291.06 413.04,297.02 415.33,301.87C417.09,306.17 420.77,309.74 425.24,311.12C431.44,312.89 438.45,310.37 442.3,305.25C447.1,297.96 445.69,287.5 439.66,281.36C432.83,273.42 418.26,276.7 414.38,286.06Z" style="fill:white;fill-rule:nonzero;"/>
            </g>
        </g>
        <g transform="matrix(1,0,0,1,-6.19948,0)">
            <g transform="matrix(1.91668,0,0,2.99958,38.6785,-2061.83)">
                <path d="M710.099,883.169L673.396,883.169L673.396,735.97L618.084,735.97L618.084,699.139L760.354,703.526L759.949,736.073L710.099,735.97L710.099,883.169Z" style="fill:white;"/>
            </g>
            <g transform="matrix(102.998,0,0,12.0229,-41427.9,-3034.48)">
                <path d="M416.934,256.621C416.938,257.832 416.939,263.172 416.93,264.51C416.929,264.561 416.791,264.544 416.791,264.544L416.791,256.469C416.791,256.469 416.933,256.523 416.934,256.621Z" style="fill:white;"/>
            </g>
            <g transform="matrix(1.91668,0,0,2.99958,38.6785,-2061.83)">
                <path d="M822.391,719.471C822.391,722.722 821.77,725.759 820.53,728.582C819.289,731.406 817.6,733.865 815.461,735.962C813.322,738.058 810.819,739.726 807.953,740.967C805.087,742.207 802.028,742.827 798.777,742.827C795.526,742.827 792.468,742.207 789.601,740.967C786.735,739.726 784.254,738.058 782.158,735.962C780.062,733.865 778.394,731.406 777.153,728.582C775.913,725.759 775.292,722.722 775.292,719.471C775.292,716.305 775.913,713.289 777.153,710.423C778.394,707.557 780.062,705.076 782.158,702.98C784.254,700.884 786.735,699.215 789.601,697.975C792.468,696.734 795.526,696.114 798.777,696.114C802.028,696.114 805.087,696.734 807.953,697.975C810.819,699.215 813.322,700.884 815.461,702.98C817.6,705.076 819.289,707.557 820.53,710.423C821.77,713.289 822.391,716.305 822.391,719.471ZM816.359,883.169L781.067,883.169L780.306,755.422L815.599,755.987L816.359,883.169Z" style="fill:white;"/>
            </g>
            <g transform="matrix(9.13855,0,0,14.6619,220.124,-5120.02)">
                <path d="M193.845,389.197L186.554,389.197L186.554,370.969C186.554,370.469 186.46,369.995 186.273,369.548C186.085,369.101 185.821,368.708 185.482,368.369C185.142,368.029 184.749,367.766 184.302,367.578C183.856,367.39 183.382,367.297 182.882,367.297C182.381,367.297 181.912,367.39 181.474,367.578C181.037,367.766 180.652,368.029 180.322,368.369C179.991,368.708 179.732,369.101 179.544,369.548C179.357,369.995 179.263,370.469 179.263,370.969L179.263,389.197L171.945,389.197L171.945,370.969C171.945,370.469 171.851,369.995 171.664,369.548C171.476,369.101 171.212,368.708 170.873,368.369C170.533,368.029 170.14,367.766 169.693,367.578C169.247,367.39 168.773,367.297 168.273,367.297C167.772,367.297 167.303,367.39 166.865,367.578C166.427,367.766 166.043,368.029 165.713,368.369C165.382,368.708 165.123,369.101 164.935,369.548C164.748,369.995 164.654,370.469 164.654,370.969L164.654,389.197L157.336,389.197L157.336,360.488L159.105,360.488L161.089,362.686C162.107,361.828 163.229,361.162 164.453,360.689C165.677,360.215 166.95,359.979 168.273,359.979C169.613,359.979 170.922,360.229 172.2,360.729C173.477,361.229 174.599,362.096 175.564,363.329C176.011,362.722 176.52,362.203 177.092,361.775C177.664,361.346 178.267,360.997 178.901,360.729C179.536,360.461 180.192,360.269 180.871,360.153C181.55,360.037 182.221,359.979 182.882,359.979C184.401,359.979 185.826,360.264 187.157,360.836C188.489,361.408 189.65,362.19 190.642,363.182C191.634,364.174 192.416,365.34 192.988,366.68C193.559,368.02 193.845,369.45 193.845,370.969L193.845,389.197Z" style="fill:white;"/>
            </g>
            <g transform="matrix(9.13855,0,0,14.6619,220.124,-5120.02)">
                <path d="M210.599,382.174C210.885,382.263 211.171,382.321 211.457,382.348C211.743,382.375 212.029,382.388 212.315,382.388C213.029,382.388 213.717,382.29 214.379,382.093C215.04,381.897 215.661,381.615 216.242,381.249C216.822,380.883 217.341,380.436 217.796,379.909C218.252,379.382 218.623,378.796 218.909,378.153L224.27,383.541C223.591,384.506 222.809,385.373 221.925,386.141C221.04,386.909 220.084,387.562 219.056,388.098C218.029,388.634 216.948,389.041 215.813,389.318C214.678,389.595 213.512,389.733 212.315,389.733C210.295,389.733 208.396,389.358 206.618,388.607C204.84,387.857 203.286,386.811 201.954,385.471C200.623,384.131 199.573,382.536 198.804,380.686C198.036,378.836 197.652,376.804 197.652,374.588C197.652,372.318 198.036,370.245 198.804,368.369C199.573,366.492 200.623,364.893 201.954,363.571C203.286,362.248 204.84,361.221 206.618,360.488C208.396,359.755 210.295,359.389 212.315,359.389C213.512,359.389 214.682,359.532 215.826,359.818C216.97,360.104 218.056,360.515 219.083,361.051C220.111,361.587 221.071,362.244 221.965,363.021C222.858,363.798 223.645,364.67 224.324,365.635L210.599,382.174ZM214.352,367.082C214.012,366.957 213.677,366.877 213.347,366.841C213.016,366.805 212.672,366.787 212.315,366.787C211.314,366.787 210.371,366.97 209.487,367.337C208.602,367.703 207.834,368.226 207.181,368.905C206.529,369.584 206.015,370.402 205.64,371.358C205.265,372.314 205.077,373.39 205.077,374.588C205.077,374.856 205.09,375.16 205.117,375.499C205.144,375.839 205.189,376.183 205.251,376.531C205.314,376.88 205.39,377.215 205.479,377.536C205.568,377.858 205.685,378.144 205.828,378.394L214.352,367.082Z" style="fill:white;"/>
            </g>
            <g transform="matrix(9.13855,0,0,14.6619,220.124,-5120.02)">
                <path d="M243.758,389.197L227.031,389.197L227.031,381.906L243.758,381.906C244.258,381.906 244.687,381.727 245.045,381.37C245.402,381.012 245.581,380.583 245.581,380.083C245.581,379.565 245.402,379.225 245.045,379.064C244.687,378.903 244.258,378.823 243.758,378.823L236.145,378.823C234.876,378.823 233.688,378.582 232.58,378.099C231.472,377.617 230.507,376.96 229.685,376.129C228.863,375.298 228.215,374.329 227.741,373.221C227.268,372.113 227.031,370.924 227.031,369.655C227.031,368.387 227.268,367.198 227.741,366.09C228.215,364.982 228.863,364.017 229.685,363.195C230.507,362.373 231.472,361.725 232.58,361.252C233.688,360.778 234.876,360.541 236.145,360.541L250.969,360.541L250.969,367.833L236.145,367.833C235.645,367.833 235.216,368.011 234.858,368.369C234.501,368.726 234.322,369.155 234.322,369.655C234.322,370.174 234.501,370.616 234.858,370.982C235.216,371.349 235.645,371.532 236.145,371.532L243.758,371.532C245.009,371.532 246.188,371.742 247.296,372.162C248.404,372.582 249.369,373.167 250.191,373.918C251.013,374.668 251.666,375.571 252.148,376.625C252.631,377.679 252.872,378.832 252.872,380.083C252.872,381.352 252.631,382.536 252.148,383.635C251.666,384.734 251.013,385.699 250.191,386.53C249.369,387.361 248.404,388.013 247.296,388.487C246.188,388.96 245.009,389.197 243.758,389.197Z" style="fill:white;"/>
            </g>
        </g>
    </g>
</svg>
